<?xml version="1.0" encoding="UTF-8" standalone="no"?>
<!-- Created with Inkscape (http://www.inkscape.org/) -->

<svg
   width="9600"
   height="11400"
   viewBox="0 0 2540.0002 3016.2501"
   version="1.1"
   id="svg4313"
   inkscape:version="1.2.2 (732a01da63, 2022-12-09)"
   sodipodi:docname="Baseline-digital.svg"
   inkscape:export-filename="Baseline-digital.png"
   inkscape:export-xdpi="96"
   inkscape:export-ydpi="96"
   xmlns:inkscape="http://www.inkscape.org/namespaces/inkscape"
   xmlns:sodipodi="http://sodipodi.sourceforge.net/DTD/sodipodi-0.dtd"
   xmlns="http://www.w3.org/2000/svg"
   xmlns:svg="http://www.w3.org/2000/svg">
  <sodipodi:namedview
     id="namedview4315"
     pagecolor="#ffffff"
     bordercolor="#666666"
     borderopacity="1.0"
     inkscape:showpageshadow="2"
     inkscape:pageopacity="0.0"
     inkscape:pagecheckerboard="0"
     inkscape:deskcolor="#d1d1d1"
     inkscape:document-units="px"
     showgrid="true"
     inkscape:zoom="0.08117387"
     inkscape:cx="4490.3612"
     inkscape:cy="3276.9166"
     inkscape:window-width="1600"
     inkscape:window-height="837"
     inkscape:window-x="-8"
     inkscape:window-y="-8"
     inkscape:window-maximized="1"
     inkscape:current-layer="layer1">
    <inkscape:grid
       type="xygrid"
       id="grid4680"
       spacingx="0.26458334"
       spacingy="0.26458334"
       originx="0"
       originy="0" />
  </sodipodi:namedview>
  <defs
     id="defs4310">
    <inkscape:path-effect
       effect="bspline"
       id="path-effect18297"
       is_visible="true"
       lpeversion="1"
       weight="33.333333"
       steps="2"
       helper_size="0"
       apply_no_weight="true"
       apply_with_weight="true"
       only_selected="false" />
    <inkscape:path-effect
       effect="bspline"
       id="path-effect18291"
       is_visible="true"
       lpeversion="1"
       weight="33.333333"
       steps="2"
       helper_size="0"
       apply_no_weight="true"
       apply_with_weight="true"
       only_selected="false" />
    <inkscape:path-effect
       effect="bspline"
       id="path-effect18287"
       is_visible="true"
       lpeversion="1"
       weight="33.333333"
       steps="2"
       helper_size="0"
       apply_no_weight="true"
       apply_with_weight="true"
       only_selected="false" />
    <inkscape:path-effect
       effect="bspline"
       id="path-effect18266"
       is_visible="true"
       lpeversion="1"
       weight="33.333333"
       steps="2"
       helper_size="0"
       apply_no_weight="true"
       apply_with_weight="true"
       only_selected="false" />
    <inkscape:path-effect
       effect="bspline"
       id="path-effect18262"
       is_visible="true"
       lpeversion="1"
       weight="33.333333"
       steps="2"
       helper_size="0"
       apply_no_weight="true"
       apply_with_weight="true"
       only_selected="false" />
    <inkscape:path-effect
       effect="bspline"
       id="path-effect17848"
       is_visible="true"
       lpeversion="1"
       weight="33.333333"
       steps="2"
       helper_size="0"
       apply_no_weight="true"
       apply_with_weight="true"
       only_selected="false" />
    <inkscape:path-effect
       effect="bspline"
       id="path-effect17844"
       is_visible="true"
       lpeversion="1"
       weight="33.333333"
       steps="2"
       helper_size="0"
       apply_no_weight="true"
       apply_with_weight="true"
       only_selected="false" />
    <inkscape:path-effect
       effect="bspline"
       id="path-effect17758"
       is_visible="true"
       lpeversion="1"
       weight="33.333333"
       steps="2"
       helper_size="0"
       apply_no_weight="true"
       apply_with_weight="true"
       only_selected="false" />
    <inkscape:path-effect
       effect="bspline"
       id="path-effect13929"
       is_visible="true"
       lpeversion="1"
       weight="33.333333"
       steps="2"
       helper_size="0"
       apply_no_weight="true"
       apply_with_weight="true"
       only_selected="false" />
    <inkscape:path-effect
       effect="bspline"
       id="path-effect13921"
       is_visible="true"
       lpeversion="1"
       weight="33.333333"
       steps="2"
       helper_size="0"
       apply_no_weight="true"
       apply_with_weight="true"
       only_selected="false" />
    <inkscape:path-effect
       effect="bspline"
       id="path-effect13917"
       is_visible="true"
       lpeversion="1"
       weight="33.333333"
       steps="2"
       helper_size="0"
       apply_no_weight="true"
       apply_with_weight="true"
       only_selected="false" />
    <inkscape:path-effect
       effect="bspline"
       id="path-effect13850"
       is_visible="true"
       lpeversion="1"
       weight="33.333333"
       steps="2"
       helper_size="0"
       apply_no_weight="true"
       apply_with_weight="true"
       only_selected="false" />
    <inkscape:path-effect
       effect="bspline"
       id="path-effect13842"
       is_visible="true"
       lpeversion="1"
       weight="33.333333"
       steps="2"
       helper_size="0"
       apply_no_weight="true"
       apply_with_weight="true"
       only_selected="false" />
    <inkscape:path-effect
       effect="bspline"
       id="path-effect13834"
       is_visible="true"
       lpeversion="1"
       weight="33.333333"
       steps="2"
       helper_size="0"
       apply_no_weight="true"
       apply_with_weight="true"
       only_selected="false" />
    <inkscape:path-effect
       effect="bspline"
       id="path-effect13830"
       is_visible="true"
       lpeversion="1"
       weight="33.333333"
       steps="2"
       helper_size="0"
       apply_no_weight="true"
       apply_with_weight="true"
       only_selected="false" />
    <inkscape:path-effect
       effect="bspline"
       id="path-effect13826"
       is_visible="true"
       lpeversion="1"
       weight="33.333333"
       steps="2"
       helper_size="0"
       apply_no_weight="true"
       apply_with_weight="true"
       only_selected="false" />
    <inkscape:path-effect
       effect="bspline"
       id="path-effect13820"
       is_visible="true"
       lpeversion="1"
       weight="33.333333"
       steps="2"
       helper_size="0"
       apply_no_weight="true"
       apply_with_weight="true"
       only_selected="false" />
    <inkscape:path-effect
       effect="bspline"
       id="path-effect13084"
       is_visible="true"
       lpeversion="1"
       weight="33.333333"
       steps="2"
       helper_size="0"
       apply_no_weight="true"
       apply_with_weight="true"
       only_selected="false" />
    <inkscape:path-effect
       effect="bspline"
       id="path-effect13080"
       is_visible="true"
       lpeversion="1"
       weight="33.333333"
       steps="2"
       helper_size="0"
       apply_no_weight="true"
       apply_with_weight="true"
       only_selected="false" />
  </defs>
  <g
     inkscape:groupmode="layer"
     id="layer2"
     inkscape:label="Layer 2">
    <rect
       style="fill:#cc4e4e;fill-opacity:0.471503;stroke:none;stroke-width:19.8437;stroke-dasharray:none;stroke-opacity:1"
       id="rect13968-3-61"
       width="1174.75"
       height="254.00002"
       x="8.9944305"
       y="2727.3271" />
    <rect
       style="fill:#cc4e4e;fill-opacity:0.471503;stroke:none;stroke-width:19.8437;stroke-dasharray:none;stroke-opacity:1"
       id="rect13968-3-1"
       width="1174.75"
       height="254.00002"
       x="1261.5341"
       y="2719.3916" />
    <rect
       style="fill:#cc4e4e;fill-opacity:0.471503;stroke:none;stroke-width:19.8437;stroke-dasharray:none;stroke-opacity:1"
       id="rect13968-37"
       width="1174.75"
       height="254.00002"
       x="1253.5953"
       y="914.39856" />
    <rect
       style="fill:#cc4e4e;fill-opacity:0.471503;stroke:none;stroke-width:19.8437;stroke-dasharray:none;stroke-opacity:1"
       id="rect13968-7"
       width="1174.75"
       height="254.00002"
       x="1258.3582"
       y="1535.1094" />
    <rect
       style="fill:#cc4e4e;fill-opacity:0.471503;stroke:none;stroke-width:19.8437;stroke-dasharray:none;stroke-opacity:1"
       id="rect13968-3"
       width="1174.75"
       height="254.00002"
       x="1253.5957"
       y="315.91217" />
    <rect
       style="fill:#cc4e4e;fill-opacity:0.471503;stroke:none;stroke-width:19.8437;stroke-dasharray:none;stroke-opacity:1"
       id="rect13968-3-8"
       width="1174.75"
       height="254.00002"
       x="4.231802"
       y="315.91217" />
    <rect
       style="fill:#cc4e4e;fill-opacity:0.471503;stroke:none;stroke-width:19.8437;stroke-dasharray:none;stroke-opacity:1"
       id="rect13968-3-9"
       width="1174.75"
       height="254.00002"
       x="1.0568161"
       y="919.16089" />
    <rect
       style="fill:#cc4e4e;fill-opacity:0.471503;stroke:none;stroke-width:19.8437;stroke-dasharray:none;stroke-opacity:1"
       id="rect13968-3-4"
       width="1174.75"
       height="254.00002"
       x="12.169168"
       y="1522.4114" />
    <rect
       style="fill:#cc4e4e;fill-opacity:0.471503;stroke:none;stroke-width:19.8437;stroke-dasharray:none;stroke-opacity:1"
       id="rect13968-3-5"
       width="1174.75"
       height="254.00002"
       x="7.406846"
       y="2146.303" />
    <rect
       style="fill:#cc4e4e;fill-opacity:0.471503;stroke:none;stroke-width:19.8437;stroke-dasharray:none;stroke-opacity:1"
       id="rect13968-3-6"
       width="1174.75"
       height="254.00002"
       x="1253.5947"
       y="2144.7153" />
  </g>
  <g
     inkscape:label="Layer 1"
     inkscape:groupmode="layer"
     id="layer1">
    <path
       style="fill:none;stroke:#000000;stroke-width:19.8437;stroke-linecap:butt;stroke-linejoin:miter;stroke-dasharray:none;stroke-opacity:1"
       d="m 2124.0741,1666.8734 h 79.3749"
       id="path17760"
       sodipodi:nodetypes="cc" />
    <path
       style="fill:none;stroke:#000000;stroke-width:19.8437;stroke-linecap:butt;stroke-linejoin:miter;stroke-dasharray:none;stroke-opacity:1"
       d="m 1425.574,1782.7609 c 5.2917,-82.0202 10.5834,-164.041 35.7192,-205.0517 25.1358,-41.0108 70.1141,-41.0108 91.2808,-19.8433 21.1667,21.1674 18.5209,63.4998 -1.3225,84.6662 -19.8433,21.1663 -56.8842,21.1663 -76.7287,10.5832 -19.8445,-10.5831 -22.4903,-31.7494 -25.1362,-52.9169"
       id="path18289"
       inkscape:path-effect="#path-effect18291"
       inkscape:original-d="m 1425.574,1782.7609 c 5.2925,-82.0201 10.5842,-164.0409 15.8751,-246.0625 44.9799,8e-4 89.9582,8e-4 134.9375,0 -2.6451,42.335 -5.2909,84.6674 -7.9375,127 -37.0409,8e-4 -74.0818,8e-4 -111.125,0 -2.6451,-21.1663 -5.2909,-42.3326 -7.9375,-63.5"
       sodipodi:nodetypes="cccccc" />
    <path
       id="path4682-9-5-2"
       style="fill:#000000;fill-opacity:1;stroke:#000000;stroke-width:0.793749px;stroke-linecap:butt;stroke-linejoin:miter;stroke-opacity:1"
       d="M 73.027106,1.5885478 C 65.089651,9.5260533 57.152162,17.463553 49.214662,25.401043 l -23.8125,95.248307 11.90625,11.90625 11.90625,-11.90625 23.812444,-95.248307 H 168.27708 L 180.18333,13.494793 168.27708,1.5885478 Z M 37.308412,132.5556 25.402162,144.46185 1.5896668,239.71186 c 7.9374955,7.93749 15.8749952,15.875 23.8124952,23.8125 h 95.249918 l 11.90625,-11.90625 -11.90625,-11.90625 H 25.402162 l 23.8125,-95.25001 z"
       sodipodi:nodetypes="cccccccccccccccccccc" />
    <path
       id="path4682-1-70-2-4-6-6"
       style="fill:#000000;fill-opacity:1;stroke:#000000;stroke-width:0.791922px;stroke-linecap:butt;stroke-linejoin:miter;stroke-opacity:1"
       d="m 497.6849,13.494793 c -3.91344,4.22793 -8.62404,8.00451 -12.05595,12.50507 -7.8876,31.54988 -15.7752,63.09967 -23.6628,94.649487 3.96876,3.96875 7.93749,7.9375 11.90625,11.90625 3.91344,-4.22793 8.62404,-8.00451 12.05595,-12.50507 7.8876,-31.549814 15.7752,-63.099597 23.6628,-94.649487 -3.96876,-3.96875 -7.93749,-7.93749 -11.90625,-11.90625 z M 473.8724,132.5556 c -3.91344,4.22793 -8.62404,8.00451 -12.05595,12.50506 -7.8876,31.5504 -15.7752,63.1008 -23.6628,94.6512 -31.75053,0 -63.50103,0 -95.25156,0 -3.96876,3.96875 -7.93749,7.93749 -11.90625,11.90625 3.96876,3.96875 7.93749,7.93749 11.90625,11.90625 31.75053,0 63.50103,0 95.25156,0 7.93749,-7.9375 15.87501,-15.87501 23.8125,-23.8125 7.93749,-31.75001 15.87501,-63.50001 23.8125,-95.25001 -3.96876,-3.96875 -7.93749,-7.9375 -11.90625,-11.90625 z" />
    <path
       id="path4682-9-5-2-6"
       style="fill:#000000;fill-opacity:1;stroke:#000000;stroke-width:0.793749px;stroke-linecap:butt;stroke-linejoin:miter;stroke-opacity:1"
       d="m 709.61461,0.0010487 c -7.88903,8.2049255 -16.58423,15.9534043 -23.9702,24.4431743 -7.88493,31.53926 -15.76989,63.078439 -23.65482,94.617627 3.96876,3.96875 7.93749,7.9375 11.90625,11.90625 3.9207,-4.23593 8.64663,-8.01597 12.06393,-12.53692 7.88493,-31.539185 15.76989,-63.078377 23.65484,-94.617637 31.74999,0 63.50001,0 95.25,0 -7.93749,31.74949 -15.87501,63.498889 -23.8125,95.248307 3.96876,3.96875 7.93749,7.9375 11.90625,11.90625 3.9207,-4.23593 8.64663,-8.01597 12.06393,-12.53692 7.88493,-31.539185 15.76989,-63.078377 23.65482,-94.617637 -7.93749,-7.9375 -15.87501,-15.8749988 -23.8125,-23.8124943 -31.74999,0 -63.50001,0 -95.25,0 z M 792.95836,130.9681 c -3.9207,4.23593 -8.64663,8.01597 -12.06393,12.53692 -7.88493,31.53926 -15.76989,63.07852 -23.65482,94.61778 -31.75002,0 -63.5,0 -95.25002,0 7.93749,-31.74948 15.87501,-63.49897 23.8125,-95.24845 -3.96876,-3.96875 -7.93749,-7.9375 -11.90625,-11.90625 -3.9207,4.23593 -8.64663,8.01597 -12.06393,12.53692 -7.88493,31.53926 -15.76989,63.07852 -23.65482,94.61778 7.93749,7.93751 15.87501,15.87501 23.8125,23.81251 31.75002,0 63.5,0 95.25002,0 7.88904,-8.20493 16.58424,-15.9534 23.97018,-24.44318 7.88493,-31.53926 15.76989,-63.07852 23.65482,-94.61778 -3.96876,-3.96875 -7.93749,-7.9375 -11.90625,-11.90625 z" />
    <path
       id="path4682-18-2-6"
       style="fill:#000000;fill-opacity:1;stroke:#000000;stroke-width:0.793749px;stroke-linecap:butt;stroke-linejoin:miter;stroke-opacity:1"
       d="m 73.027106,619.12593 c -7.937455,7.93749 -15.874944,15.87501 -23.812444,23.8125 -7.9375,31.74948 -15.875,63.49896 -23.8125,95.24844 7.93651,7.93863 15.87442,15.8739 23.81095,23.8125 31.750476,0 63.500948,0 95.251468,0 -7.9375,31.75 -15.87501,63.50002 -23.8125,95.25001 -31.749956,0 -63.499918,0 -95.249918,0 -3.96875,3.96876 -7.9375,7.93749 -11.90625,11.90625 3.96875,3.96876 7.9375,7.93749 11.90625,11.90625 31.75,0 63.499962,0 95.249918,0 7.93749,-7.93749 15.875,-15.87501 23.8125,-23.8125 7.93749,-31.74999 15.875,-63.50001 23.8125,-95.25001 -7.93755,-7.93863 -15.87649,-15.8739 -23.81406,-23.8125 -31.74948,0 -63.498912,0 -95.248358,0 7.9375,-31.74948 15.874989,-63.49896 23.812444,-95.24844 31.749964,0 63.499964,0 95.249974,0 3.96875,-3.96876 7.9375,-7.93749 11.90625,-11.90625 -3.96875,-3.96876 -7.9375,-7.93749 -11.90625,-11.90625 -31.75001,0 -63.50001,0 -95.249974,0 z" />
    <path
       id="path4682-18-2-2-5"
       style="fill:#000000;fill-opacity:1;stroke:#000000;stroke-width:0.793749px;stroke-linecap:butt;stroke-linejoin:miter;stroke-opacity:1"
       d="m 231.77708,619.12746 c -3.96875,3.96876 -7.9375,7.93749 -11.90625,11.90625 3.96875,3.96825 7.9375,7.93647 11.90625,11.90472 31.75,0 63.50001,0 95.25,0 -7.93839,31.74951 -15.87369,63.50298 -23.81403,95.25 -31.75002,0 -63.50002,0 -95.25002,0 -3.96875,3.96876 -7.9375,7.93749 -11.90625,11.90625 3.96875,3.96876 7.9375,7.93749 11.90625,11.90625 31.75051,0 63.50102,0 95.25155,0 -7.93749,31.75 -15.87501,63.50002 -23.8125,95.25001 3.96876,3.96876 7.93749,7.93749 11.90625,11.90625 3.91908,-4.21497 8.59014,-8.00418 12.04953,-12.47943 7.88976,-31.55892 15.77949,-63.11787 23.66922,-94.67683 -3.96876,-3.96876 -7.93749,-7.93749 -11.90625,-11.90625 3.91908,-4.21497 8.59014,-8.00418 12.04953,-12.47943 7.88976,-31.55892 15.77949,-63.11787 23.66922,-94.67682 -7.93791,-7.93659 -15.8754,-15.87357 -23.8125,-23.81097 -31.74999,0 -63.5,0 -95.25,0 z" />
    <path
       id="path4682-18-2-4-5"
       style="fill:#000000;fill-opacity:1;stroke:#000000;stroke-width:0.793749px;stroke-linecap:butt;stroke-linejoin:miter;stroke-opacity:1"
       d="m 378.6224,631.03218 c -3.91665,4.22445 -8.61522,8.00619 -12.05487,12.5007 -7.88847,31.55133 -15.77697,63.10266 -23.66544,94.65399 3.96771,3.96927 7.94373,7.93857 11.90625,11.90781 -3.91662,4.22397 -8.61531,8.00505 -12.05487,12.49914 -7.88796,31.55185 -15.77592,63.10372 -23.66388,94.65556 3.96876,3.96876 7.93749,7.93749 11.90625,11.90625 3.91665,-4.22445 8.61522,-8.00619 12.05487,-12.5007 7.88847,-31.55184 15.77697,-63.10371 23.66544,-94.65556 31.74948,0 63.49896,0 95.24844,0 7.93755,-7.93863 15.87651,-15.8739 23.81406,-23.8125 7.93749,-31.74948 15.87501,-63.49896 23.8125,-95.24844 -3.96876,-3.96876 -7.93749,-7.93749 -11.90625,-11.90625 -3.91665,4.22445 -8.61522,8.00619 -12.05487,12.5007 -7.88886,31.55082 -15.7746,63.10569 -23.66544,94.65399 -31.74948,0 -63.49896,0 -95.24844,0 7.93749,-31.74948 15.87501,-63.49896 23.8125,-95.24844 -3.96876,-3.96876 -7.93749,-7.93749 -11.90625,-11.90625 z" />
    <path
       id="path4682-18-2-2-1-1"
       style="fill:#000000;fill-opacity:1;stroke:#000000;stroke-width:0.793749px;stroke-linecap:butt;stroke-linejoin:miter;stroke-opacity:1"
       d="m 549.27866,619.12746 c -7.88904,8.20494 -16.58424,15.9534 -23.97018,24.44319 -7.88493,31.53924 -15.76989,63.07851 -23.65482,94.61778 3.96822,3.96876 7.93647,7.93749 11.90469,11.90625 -3.92016,4.23594 -8.64558,8.016 -12.06237,12.53694 -7.88493,31.53976 -15.76989,63.07954 -23.65482,94.61932 7.93749,7.93749 15.87501,15.87501 23.8125,23.8125 31.74999,0 63.50001,0 95.25,0 3.96876,-3.96876 7.93749,-7.93749 11.90625,-11.90625 -4.24887,-3.81564 -7.99008,-8.85684 -12.55635,-11.90625 -31.5333,0 -63.0666,0 -94.5999,0 7.93749,-31.74999 15.87501,-63.50001 23.8125,-95.25001 31.74948,0 63.49896,0 95.24844,0 7.88727,-8.20707 16.58436,-15.95304 23.97174,-24.44316 7.88544,-31.53927 15.77091,-63.07854 23.65635,-94.61781 -7.93761,-7.93791 -15.87561,-15.8754 -23.81403,-23.8125 -31.74999,0 -63.50001,0 -95.25,0 z m 0,23.8125 c 31.74999,0 63.50001,0 95.25,0 -7.93842,31.749 -15.87369,63.50202 -23.81406,95.24847 -31.74948,0 -63.49896,0 -95.24844,0 7.93749,-31.74948 15.87501,-63.49899 23.8125,-95.24847 z" />
    <path
       id="path4682-9-5-2-6-9"
       style="fill:#000000;fill-opacity:1;stroke:#000000;stroke-width:0.793749px;stroke-linecap:butt;stroke-linejoin:miter;stroke-opacity:1"
       d="m 709.61461,617.53842 c -7.89203,8.18571 -16.53317,15.94707 -23.95892,24.39648 -7.88868,31.55484 -15.77739,63.10965 -23.6661,94.66449 3.96876,3.96876 7.93749,7.93749 11.90625,11.90625 3.924,-4.21689 8.59605,-8.01024 12.05265,-12.49179 7.88871,-31.55484 15.77742,-63.10965 23.66612,-94.66449 31.74999,0 63.50001,0 95.25,0 -7.93749,31.75002 -15.87501,63.50001 -23.8125,95.25003 3.96876,3.96876 7.93749,7.93749 11.90625,11.90625 3.924,-4.21689 8.59605,-8.01024 12.05265,-12.49179 7.88868,-31.55484 15.77739,-63.10965 23.6661,-94.66449 -7.93791,-7.93656 -15.8754,-15.87354 -23.8125,-23.81094 -31.74999,0 -63.50001,0 -95.25,0 z m 83.34375,130.96722 c -3.924,4.21689 -8.59605,8.01024 -12.05265,12.49179 -7.88868,31.55431 -15.77739,63.10861 -23.6661,94.66291 3.96876,3.96876 7.93749,7.93749 11.90625,11.90625 3.924,-4.21689 8.59605,-8.01024 12.05265,-12.49179 7.88868,-31.5543 15.77739,-63.1086 23.6661,-94.66291 -3.96876,-3.96876 -7.93749,-7.93749 -11.90625,-11.90625 z" />
    <path
       id="path4682-18-2-5"
       style="fill:#000000;fill-opacity:1;stroke:#000000;stroke-width:0.793749px;stroke-linecap:butt;stroke-linejoin:miter;stroke-opacity:1"
       d="m 73.817753,1227.9292 c -3.924259,4.2095 -8.576452,8.007 -12.047881,12.4729 -7.89027,31.5612 -15.78054,63.1222 -23.67081,94.6833 3.96823,3.9688 7.93647,7.9375 11.9047,11.9063 -3.92375,4.2096 -8.57545,8.007 -12.04639,12.4729 -7.89027,31.5612 -15.78054,63.1222 -23.67081,94.6833 3.96875,3.9688 7.9375,7.9375 11.90625,11.9063 3.92428,-4.2096 8.5765,-8.007 12.04794,-12.473 7.89027,-31.5611 15.78054,-63.1222 23.67081,-94.6833 31.749944,0 63.499908,0 95.249918,0 -7.9375,31.75 -15.87501,63.5 -23.8125,95.25 3.96875,3.9688 7.93749,7.9375 11.90625,11.9063 3.92428,-4.2096 8.57649,-8.007 12.04793,-12.473 7.89027,-31.5611 15.78055,-63.1222 23.67082,-94.6833 -7.93756,-7.9386 -15.8765,-15.8739 -23.81406,-23.8125 -31.74948,0 -63.498924,0 -95.248358,0 7.937462,-31.75 15.874947,-63.5 23.812456,-95.25 -3.968747,-3.9687 -7.937509,-7.9375 -11.906265,-11.9062 z" />
    <path
       id="path4682-18-2-2-2"
       style="fill:#000000;fill-opacity:1;stroke:#000000;stroke-width:0.793749px;stroke-linecap:butt;stroke-linejoin:miter;stroke-opacity:1"
       d="m 244.47398,1216.0244 -11.90625,11.9063 -11.90625,11.9062 -23.8125,95.2501 11.90625,11.9062 11.9047,11.9063 h 95.25002 0.002 l -23.8125,95.2484 11.90625,11.9063 11.90625,-11.9063 23.8125,-95.2484 -11.90625,-11.9063 h -0.002 l -11.90625,-11.9062 h -95.24847 l 23.8125,-95.2501 h 95.25 l 11.90625,-11.9062 -11.90625,-11.9063 z" />
    <path
       id="path4682-9-5-2-1-7"
       style="fill:#000000;fill-opacity:1;stroke:#000000;stroke-width:0.793749px;stroke-linecap:butt;stroke-linejoin:miter;stroke-opacity:1"
       d="m 403.22555,1216.0244 -11.90625,11.9048 -11.90625,11.9062 -23.8125,95.25 11.90625,11.9063 11.90625,-11.9063 23.8125,-95.25 h 95.25 l -23.8125,95.25 11.90625,11.9063 11.90625,-11.9063 23.8125,-95.25 -11.90625,-11.9062 -11.90625,-11.9048 z m 83.34375,130.9673 -11.90625,11.9062 -23.8125,95.25 h -95.25 l -11.90625,11.9063 11.90625,11.9062 h 95.25 l 11.90625,-11.9062 11.90625,-11.9063 23.8125,-95.25 z" />
    <path
       id="path4682-18-2-2-1-4"
       style="fill:#000000;fill-opacity:1;stroke:#000000;stroke-width:0.793749px;stroke-linecap:butt;stroke-linejoin:miter;stroke-opacity:1"
       d="m 669.13334,1227.9307 -11.90625,11.9062 -23.8125,95.2501 h -0.002 -95.25 l -11.90781,11.9062 h 0.002 l -11.90625,11.9047 -23.8125,95.2485 11.90625,11.9062 11.90625,11.9063 h 95.25153 l 11.90625,-11.9063 11.90625,-11.9062 23.8125,-95.2485 -11.90625,-11.9062 11.90625,-11.9063 23.8125,-95.25 z m -130.96875,130.9688 h 95.24847 0.002 l -23.8125,95.2484 h -95.25153 z" />
    <path
       id="path4682-18-2-26-5"
       style="fill:#000000;fill-opacity:1;stroke:#000000;stroke-width:0.793749px;stroke-linecap:butt;stroke-linejoin:miter;stroke-opacity:1"
       d="m 710.40526,1226.3417 c -3.918,4.2305 -8.63174,8.0105 -12.05936,12.5186 -7.88649,31.5454 -15.77295,63.0907 -23.65941,94.636 3.96825,3.9688 7.93647,7.9376 11.90472,11.9063 -3.91746,4.2306 -8.63067,8.0106 -12.05781,12.5187 -7.88649,31.5458 -15.77295,63.0917 -23.65941,94.6376 7.9371,7.9374 15.87459,15.8744 23.8125,23.8109 31.75001,0 63.5,0 95.25002,0 3.96876,-3.9682 7.93749,-7.9365 11.90625,-11.9047 -4.24335,-3.8138 -7.98501,-8.8388 -12.53751,-11.9062 -31.5396,0 -63.07917,0 -94.61876,0 7.93749,-31.75 15.87501,-63.5 23.8125,-95.25 31.74947,0 63.49898,0 95.24846,0 7.88703,-8.2003 16.56546,-15.9499 23.96715,-24.4249 7.88649,-31.5454 15.77295,-63.0907 23.65941,-94.6361 -3.96876,-3.9688 -7.93749,-7.9375 -11.90625,-11.9062 -3.918,4.2305 -8.63172,8.0105 -12.05934,12.5186 -7.88739,31.5448 -15.77163,63.0937 -23.66097,94.636 -31.74948,0 -63.49899,0 -95.24846,0 7.93751,-31.7494 15.875,-63.4989 23.81252,-95.2484 -3.96876,-3.9688 -7.93749,-7.9375 -11.90625,-11.9062 z" />
    <path
       id="path4682-18-2-4-7-7"
       style="fill:#000000;fill-opacity:1;stroke:#000000;stroke-width:0.793749px;stroke-linecap:butt;stroke-linejoin:miter;stroke-opacity:1"
       d="m 1325.5652,1836.7401 c -3.9687,3.9687 -7.9375,7.9375 -11.9062,11.9062 4.2433,3.8138 7.985,8.8388 12.5375,11.9063 31.5401,0 63.0802,0 94.6203,0 -7.9375,31.7495 -15.875,63.499 -23.8125,95.2485 3.9689,3.9684 7.9366,7.9397 11.9062,11.9062 3.918,-4.2305 8.6318,-8.0105 12.0594,-12.5186 7.8865,-31.5454 15.7729,-63.0907 23.6594,-94.6361 -7.9375,-7.9375 -15.875,-15.875 -23.8125,-23.8125 -31.7505,0 -63.501,0 -95.2516,0 z m 83.3438,130.9672 c -4.2439,-3.8138 -7.9861,-8.8386 -12.5391,-11.9062 -31.5396,0 -63.0792,0 -94.6187,0 -7.8878,8.1986 -16.5639,15.9506 -23.9641,24.4249 -7.8865,31.5453 -15.7729,63.0907 -23.6594,94.636 3.9688,3.9688 7.9375,7.9375 11.9063,11.9063 3.918,-4.2305 8.6317,-8.0105 12.0593,-12.5187 7.8865,-31.5453 15.773,-63.0907 23.6594,-94.636 31.7495,0 63.499,0 95.2485,0 3.9692,-3.9688 7.9385,-7.9375 11.9078,-11.9063 z" />
    <path
       id="path4682-18-2-2-1-9-71"
       style="fill:#000000;fill-opacity:1;stroke:#000000;stroke-width:0.793749px;stroke-linecap:butt;stroke-linejoin:miter;stroke-opacity:1"
       d="m 1484.3168,1836.7416 c -7.9371,7.9374 -15.8746,15.8744 -23.8125,23.811 -7.9375,31.75 -15.875,63.5 -23.8125,95.2501 7.9374,7.9371 15.8743,15.8745 23.8109,23.8125 31.7506,0 63.5011,0 95.2516,0 -7.9375,31.7494 -15.875,63.4989 -23.8125,95.2484 -31.75,0 -63.5,0 -95.25,0 -3.9688,3.9688 -7.9375,7.9375 -11.9063,11.9062 4.248,3.807 7.9822,8.854 12.5427,11.9063 31.5379,0 63.0757,0 94.6136,0 7.9375,-7.9375 15.875,-15.875 23.8125,-23.8125 7.9375,-31.7495 15.875,-63.499 23.8125,-95.2484 -3.9688,-3.9688 -7.9375,-7.9375 -11.9063,-11.9063 3.9139,-4.2348 8.6426,-8.0083 12.0607,-12.5237 7.886,-31.5442 15.7721,-63.0884 23.6581,-94.6326 -7.9379,-7.9366 -15.8754,-15.8736 -23.8125,-23.811 -31.75,0 -63.5,0 -95.25,0 z m 0,23.811 c 31.75,0 63.5,0 95.25,0 -7.9384,31.7495 -15.8737,63.5031 -23.8141,95.2501 -31.7494,0 -63.499,0 -95.2484,0 7.9375,-31.7501 15.875,-63.5001 23.8125,-95.2501 z" />
    <path
       id="path4682-9-5-2-7-9"
       style="fill:#000000;fill-opacity:1;stroke:#000000;stroke-width:0.793749px;stroke-linecap:butt;stroke-linejoin:miter;stroke-opacity:1"
       d="m 85.724018,1836.737 c -7.888669,8.1982 -16.565258,15.9502 -23.965566,24.4249 -7.88646,31.5454 -15.77292,63.0907 -23.65939,94.6361 3.96875,3.9687 7.9375,7.9375 11.90625,11.9063 3.91799,-4.2306 8.63172,-8.0106 12.05935,-12.5187 7.886432,-31.5454 15.772887,-63.0907 23.659356,-94.6361 31.749952,0 63.499952,0 95.249962,0 -7.9375,31.7495 -15.87501,63.499 -23.8125,95.2485 3.96875,3.9687 7.93749,7.9375 11.90625,11.9063 3.91799,-4.2306 8.63172,-8.0106 12.05935,-12.5187 7.88647,-31.5454 15.77293,-63.0907 23.6594,-94.6361 -7.9375,-7.9375 -15.875,-15.875 -23.8125,-23.8125 -31.75001,0 -63.50001,0 -95.249962,0 z m 83.343712,130.9673 c -3.91799,4.2305 -8.63173,8.0105 -12.05936,12.5186 -7.88646,31.5459 -15.77293,63.0917 -23.65939,94.6376 3.96875,3.9688 7.93749,7.9375 11.90625,11.9063 3.91798,-4.2306 8.63172,-8.0106 12.05935,-12.5187 7.88646,-31.5459 15.77293,-63.0917 23.6594,-94.6376 -3.96876,-3.9688 -7.9375,-7.9375 -11.90625,-11.9062 z m -119.062418,0 c -3.91799,4.2305 -8.63173,8.0105 -12.05935,12.5186 -7.88647,31.5459 -15.77293,63.0917 -23.6594,94.6376 3.96875,3.9688 7.9375,7.9375 11.90625,11.9063 3.91799,-4.2306 8.63173,-8.0106 12.05935,-12.5187 7.88647,-31.5459 15.77293,-63.0917 23.6594,-94.6376 -3.96875,-3.9688 -7.9375,-7.9375 -11.90625,-11.9062 z" />
    <path
       id="path4682-18-2-2-5-8"
       style="fill:#000000;fill-opacity:1;stroke:#000000;stroke-width:0.793749px;stroke-linecap:butt;stroke-linejoin:miter;stroke-opacity:1"
       d="m 351.63023,1848.6448 c -3.91662,4.2239 -8.61531,8.005 -12.05487,12.4991 -7.88886,31.5514 -15.77463,63.1068 -23.66541,94.6556 -31.75002,0 -63.50002,0 -95.25002,0 -7.93739,7.9371 -15.87438,15.8746 -23.81095,23.8125 -7.9375,31.75 -15.875,63.5 -23.8125,95.25 3.96875,3.9688 7.9375,7.9375 11.90625,11.9063 3.91664,-4.2245 8.61521,-8.0062 12.05486,-12.5007 7.88796,-31.5519 15.77593,-63.1037 23.66389,-94.6556 31.74949,0 63.49899,0 95.24847,0 7.93755,-7.9386 15.87648,-15.8739 23.81403,-23.8125 7.93749,-31.75 15.87501,-63.5 23.8125,-95.25 -3.96876,-3.9682 -7.93749,-7.9365 -11.90625,-11.9047 z" />
    <path
       id="path4682-1-70-6-6-5-72-9"
       style="fill:#000000;fill-opacity:1;stroke:#000000;stroke-width:0.791922px;stroke-linecap:butt;stroke-linejoin:miter;stroke-opacity:1"
       d="m 391.3193,1848.6432 c -3.92379,4.2036 -8.56029,8.0036 -12.0438,12.4565 -7.89165,31.5661 -15.7833,63.1322 -23.67495,94.6983 3.96876,3.9687 7.93749,7.9375 11.90625,11.9063 3.92379,-4.2036 8.56029,-8.0037 12.0438,-12.4565 7.89165,-31.5661 15.7833,-63.1322 23.67495,-94.6983 -3.96876,-3.9688 -7.93749,-7.9375 -11.90625,-11.9063 z m -23.8125,119.0611 c -3.92379,4.2035 -8.56029,8.0036 -12.0438,12.4564 -7.89165,31.5666 -15.7833,63.1332 -23.67495,94.6998 7.93749,7.9375 15.87501,15.875 23.8125,23.8125 31.74999,0 63.50001,0 95.25,0 3.96876,-3.9688 7.93749,-7.9375 11.90625,-11.9062 -3.96876,-3.9688 -7.93749,-7.9375 -11.90625,-11.9063 -31.74999,0 -63.50001,0 -95.25,0 7.93749,-31.75 15.87501,-63.5 23.8125,-95.25 -3.96876,-3.9688 -7.93749,-7.9375 -11.90625,-11.9062 z" />
    <path
       id="path4682-9-5-2-8-5-0-7"
       style="fill:#000000;fill-opacity:1;stroke:#000000;stroke-width:0.793749px;stroke-linecap:butt;stroke-linejoin:miter;stroke-opacity:1"
       d="m 561.97709,1836.7385 c -3.96876,3.9688 -7.93749,7.9375 -11.90625,11.9063 4.24887,3.8156 7.99008,8.8568 12.55635,11.9062 31.5333,0 63.0666,0 94.5999,0 -7.93749,31.7496 -15.87501,63.4991 -23.8125,95.2485 3.96876,3.9688 7.93749,7.9375 11.90625,11.9063 3.9207,-4.236 8.64663,-8.016 12.06393,-12.537 7.88493,-31.5392 15.76989,-63.0785 23.65482,-94.6178 -7.93749,-7.9374 -15.87501,-15.875 -23.8125,-23.8125 -31.74999,0 -63.50001,0 -95.25,0 z m 83.34375,130.9673 c -3.9207,4.2359 -8.64663,8.016 -12.06393,12.5369 -7.88493,31.5398 -15.76989,63.0796 -23.65482,94.6193 -31.74999,0 -63.50001,0 -95.25,0 7.93749,-31.75 15.87501,-63.5 23.8125,-95.25 -3.96876,-3.9687 -7.93749,-7.9375 -11.90625,-11.9062 -3.9207,4.2359 -8.64663,8.016 -12.06393,12.5369 -7.88544,31.5398 -15.77091,63.0796 -23.65635,94.6193 7.93761,7.9379 15.87561,15.8754 23.81403,23.8125 31.74999,0 63.50001,0 95.25,0 7.88904,-8.2049 16.58424,-15.9534 23.97018,-24.4432 7.88493,-31.5397 15.76989,-63.0795 23.65482,-94.6193 -3.96876,-3.9687 -7.93749,-7.9375 -11.90625,-11.9062 z" />
    <path
       id="path4682-9-5-2-6-9-5"
       style="fill:#000000;fill-opacity:1;stroke:#000000;stroke-width:0.793749px;stroke-linecap:butt;stroke-linejoin:miter;stroke-opacity:1"
       d="m 722.31151,1835.1495 c -7.88904,8.2049 -16.58423,15.9534 -23.9702,24.4431 -7.88493,31.5394 -15.76989,63.0786 -23.65482,94.6179 3.96876,3.9688 7.93749,7.9375 11.90625,11.9062 3.9207,-4.2359 8.64663,-8.0159 12.06393,-12.5369 7.88492,-31.5392 15.76988,-63.0785 23.65484,-94.6178 31.74999,0 63.50001,0 95.25,0 -7.93749,31.7495 -15.87501,63.499 -23.8125,95.2485 3.96876,3.9688 7.93749,7.9375 11.90625,11.9062 3.9207,-4.2359 8.64663,-8.0159 12.06393,-12.5369 7.88493,-31.5392 15.76989,-63.0785 23.65482,-94.6178 -7.93749,-7.9375 -15.87501,-15.875 -23.8125,-23.8125 -31.74999,0 -63.50001,0 -95.25,0 z m -35.71877,130.9672 c -3.9207,4.236 -8.64663,8.016 -12.06393,12.537 -7.88493,31.5392 -15.76989,63.0785 -23.65482,94.6177 7.93749,7.9375 15.87501,15.875 23.8125,23.8125 31.75001,0 63.5,0 95.25002,0 3.96876,-3.9687 7.93749,-7.9375 11.90625,-11.9062 -4.24887,-3.8157 -7.99008,-8.8569 -12.55632,-11.9063 -31.53333,0 -63.06663,0 -94.59995,0 7.93749,-31.7494 15.87501,-63.4989 23.8125,-95.2484 -3.96876,-3.9688 -7.93749,-7.9375 -11.90625,-11.9063 z" />
    <path
       id="path4682-18-2-2-6-0-6"
       style="fill:#000000;fill-opacity:1;stroke:#000000;stroke-width:0.793749px;stroke-linecap:butt;stroke-linejoin:miter;stroke-opacity:1"
       d="m 869.15524,1847.0557 c -3.924,4.2169 -8.59605,8.0103 -12.05265,12.4918 -7.88868,31.5549 -15.77739,63.1097 -23.6661,94.6646 3.96825,3.9682 7.93647,7.9364 11.90472,11.9046 -3.92346,4.2169 -8.59503,8.0103 -12.05112,12.4918 -7.88868,31.5548 -15.77739,63.1097 -23.6661,94.6645 7.93749,7.9375 15.87501,15.875 23.8125,23.8125 31.75002,0 63.50001,0 95.25004,0 7.89249,-8.1858 16.53351,-15.9478 23.9589,-24.398 7.88868,-31.5549 15.7771,-63.1097 23.66553,-94.6645 -7.93693,-7.9385 -15.87552,-15.8732 -23.81349,-23.8109 -31.74948,0 -63.499,0 -95.24848,0 7.93749,-31.7501 15.87501,-63.5001 23.8125,-95.2501 -3.96876,-3.9688 -7.93749,-7.9375 -11.90625,-11.9063 z m -11.90625,130.9673 c 31.75002,0 63.50002,0 95.25004,0 -7.93749,31.75 -15.87501,63.5 -23.8125,95.25 -31.75003,0 -63.50002,0 -95.25004,0 7.93749,-31.75 15.87501,-63.5 23.8125,-95.25 z" />
    <path
       id="path4682-18-2-4-7-0-5"
       style="fill:#000000;fill-opacity:1;stroke:#000000;stroke-width:0.793749px;stroke-linecap:butt;stroke-linejoin:miter;stroke-opacity:1"
       d="m 1635.9246,1848.6432 c -3.9248,4.2096 -8.5776,8.007 -12.0495,12.473 -7.8903,31.5606 -15.7806,63.1212 -23.6708,94.6818 7.9365,7.9386 15.8744,15.8739 23.8109,23.8125 31.7511,0 63.5021,0 95.2531,0 -7.9375,31.7495 -15.875,63.499 -23.8125,95.2484 3.9688,3.9688 7.9375,7.9375 11.9063,11.9063 3.9243,-4.2096 8.5765,-8.007 12.0479,-12.473 7.8903,-31.5606 15.7806,-63.1211 23.6708,-94.6817 -3.9687,-3.9688 -7.9375,-7.9375 -11.9062,-11.9062 3.9243,-4.2096 8.5765,-8.0071 12.0479,-12.4731 7.8903,-31.5605 15.7806,-63.1211 23.6708,-94.6817 -3.9687,-3.9688 -7.9375,-7.9375 -11.9062,-11.9063 -3.9243,4.2096 -8.5765,8.0071 -12.048,12.473 -7.8911,31.5602 -15.7792,63.1242 -23.6723,94.6818 -31.75,0 -63.5,0 -95.25,0 7.938,-31.7495 15.876,-63.499 23.814,-95.2485 -3.9687,-3.9688 -7.9375,-7.9375 -11.9062,-11.9063 z" />
    <path
       id="path4682-9-5-2-8-5-1-0-6"
       style="fill:#000000;fill-opacity:1;stroke:#000000;stroke-width:0.793749px;stroke-linecap:butt;stroke-linejoin:miter;stroke-opacity:1"
       d="m 1806.5808,1836.7385 c -3.9687,3.9683 -7.9374,7.9365 -11.9062,11.9047 4.2479,3.8069 7.9822,8.854 12.5427,11.9063 31.5379,0 63.0757,0 94.6135,0 -7.9375,31.75 -15.875,63.5 -23.8125,95.25 3.9688,3.9688 7.9375,7.9375 11.9063,11.9063 3.9139,-4.2348 8.6425,-8.0083 12.0606,-12.5238 7.8866,-31.5441 15.7731,-63.0883 23.6597,-94.6325 -7.938,-7.937 -15.876,-15.874 -23.8141,-23.811 -31.75,0 -63.5,0 -95.25,0 z m 83.3438,130.9673 c -3.9138,4.2343 -8.6426,8.0071 -12.0606,12.5222 -7.8861,31.5442 -15.7721,63.0883 -23.6582,94.6325 -31.75,0 -63.5,0 -95.25,0 -3.9687,3.9688 -7.9374,7.9375 -11.9062,11.9063 4.2479,3.8069 7.9822,8.8539 12.5427,11.9062 31.5379,0 63.0757,0 94.6135,0 7.9375,-7.9375 15.875,-15.875 23.8125,-23.8125 7.9375,-31.75 15.875,-63.5 23.8125,-95.25 -3.9687,-3.9682 -7.9375,-7.9365 -11.9062,-11.9047 z" />
    <path
       id="path4682-18-2-46"
       style="fill:#000000;fill-opacity:1;stroke:#000000;stroke-width:0.793749px;stroke-linecap:butt;stroke-linejoin:miter;stroke-opacity:1"
       d="m 196.05833,2432.8449 c -3.91799,4.2305 -8.63172,8.0105 -12.05936,12.5186 -7.88737,31.5449 -15.77161,63.0937 -23.66094,94.6361 -31.75001,0 -63.499992,0 -95.249929,0 -7.888559,8.1977 -16.564579,15.9498 -23.964039,24.4249 -7.88647,31.5458 -15.77293,63.0917 -23.6594,94.6376 7.9375,7.9375 15.875,15.875 23.8125,23.8125 31.749944,0 63.499908,0 95.249918,0 3.96875,-3.9688 7.9375,-7.9375 11.90625,-11.9063 -4.24335,-3.8138 -7.98501,-8.8388 -12.53751,-11.9062 -31.53958,0 -63.079121,0 -94.618658,0 7.9375,-31.75 15.875,-63.5 23.812489,-95.25 31.749427,0 63.498889,0 95.248379,0 7.88702,-8.2003 16.56546,-15.9499 23.96715,-24.425 7.88647,-31.5453 15.77293,-63.0907 23.6594,-94.636 -3.96875,-3.9687 -7.9375,-7.9375 -11.90625,-11.9062 z" />
    <path
       id="path4682-18-2-2-11"
       style="fill:#000000;fill-opacity:1;stroke:#000000;stroke-width:0.793749px;stroke-linecap:butt;stroke-linejoin:miter;stroke-opacity:1"
       d="m 247.65208,2420.9402 c -3.96875,3.9687 -7.9375,7.9375 -11.90625,11.9062 4.24335,3.8138 7.98501,8.8388 12.5375,11.9063 31.53959,0 63.07919,0 94.61876,0 -7.93842,31.7489 -15.87369,63.502 -23.81406,95.2484 -31.74999,0 -63.5,0 -95.25,0 -7.88857,8.1978 -16.56459,15.9499 -23.96405,24.4249 -7.88647,31.5459 -15.77294,63.0917 -23.6594,94.6376 3.96875,3.9688 7.9375,7.9375 11.90625,11.9063 3.91799,-4.2305 8.63172,-8.0105 12.05935,-12.5187 7.88647,-31.5458 15.77293,-63.0917 23.6594,-94.6376 31.75,0 63.50002,0 95.25001,0 -7.93749,31.75 -15.87501,63.5 -23.8125,95.25 3.96876,3.9688 7.93749,7.9375 11.90625,11.9063 3.918,-4.2305 8.63172,-8.0105 12.05934,-12.5187 7.88649,-31.5458 15.77295,-63.0917 23.65941,-94.6376 -3.96876,-3.9687 -7.93749,-7.9375 -11.90625,-11.9062 3.918,-4.2305 8.63172,-8.0105 12.05934,-12.5187 7.88649,-31.5453 15.77295,-63.0907 23.65941,-94.636 -7.93749,-7.9375 -15.87501,-15.875 -23.8125,-23.8125 -31.74999,0 -63.50001,0 -95.25001,0 z" />
    <path
       id="path4682-18-2-4-70"
       style="fill:#000000;fill-opacity:1;stroke:#000000;stroke-width:0.793749px;stroke-linecap:butt;stroke-linejoin:miter;stroke-opacity:1"
       d="m 406.40363,2420.9386 c -7.89249,8.1858 -16.53351,15.9478 -23.9589,24.3981 -7.88922,31.5543 -15.77841,63.1086 -23.66763,94.6629 7.9383,7.9367 15.87579,15.8742 23.8125,23.8125 31.75053,0 63.50103,0 95.25156,0 -7.93752,31.75 -15.87501,63.5 -23.81253,95.25 3.96876,3.9687 7.93749,7.9375 11.90625,11.9062 3.924,-4.2169 8.59608,-8.0102 12.05268,-12.4918 7.88868,-31.5548 15.77739,-63.1096 23.6661,-94.6644 -3.96876,-3.9688 -7.93749,-7.9375 -11.90625,-11.9063 3.924,-4.2169 8.59605,-8.0102 12.05265,-12.4918 7.88868,-31.5543 15.77739,-63.1086 23.6661,-94.6629 -7.93749,-7.9375 -15.87501,-15.875 -23.8125,-23.8125 -31.75002,0 -63.50001,0 -95.25003,0 z m 0,23.8125 c 31.75002,0 63.50001,0 95.25003,0 -7.93842,31.749 -15.87369,63.502 -23.81406,95.2485 -31.74948,0 -63.49899,0 -95.24847,0 7.93749,-31.7495 15.87501,-63.499 23.8125,-95.2485 z" />
    <path
       id="path4682-18-2-2-1-5"
       style="fill:#000000;fill-opacity:1;stroke:#000000;stroke-width:0.793749px;stroke-linecap:butt;stroke-linejoin:miter;stroke-opacity:1"
       d="m 672.31145,2432.8464 c -9.76629,7.0272 -14.61672,17.081 -16.12479,28.7731 -6.5319,26.1273 -13.06233,52.255 -19.59705,78.3816 -31.74999,0 -63.50001,0 -95.25,0 -3.96876,3.9688 -7.93749,7.9375 -11.90625,11.9063 3.96876,3.9687 7.93749,7.9375 11.90625,11.9062 31.7505,0 63.50103,0 95.25153,0 -7.93749,31.75 -15.87501,63.5 -23.8125,95.25 -31.74999,0 -63.50001,0 -95.25,0 -3.96876,3.9688 -7.93749,7.9375 -11.90625,11.9063 3.96876,3.9687 7.93749,7.9375 11.90625,11.9062 31.74999,0 63.50001,0 95.25,0 7.93749,-7.9375 15.87501,-15.875 23.8125,-23.8125 7.93749,-31.75 15.87501,-63.5 23.8125,-95.25 -3.96876,-3.9687 -7.93749,-7.9375 -11.90625,-11.9062 5.33112,-5.8315 13.10907,-10.5215 13.70292,-19.0923 7.33914,-29.3541 14.67825,-58.7083 22.01739,-88.0624 -3.96876,-3.9688 -7.93749,-7.9375 -11.90625,-11.9063 z" />
    <path
       id="path4682-18-2-26-9"
       style="fill:#000000;fill-opacity:1;stroke:#000000;stroke-width:0.793749px;stroke-linecap:butt;stroke-linejoin:miter;stroke-opacity:1"
       d="m 713.58334,2431.2574 c -9.76847,7.029 -14.61566,17.0914 -16.12616,28.7842 -6.53088,26.1235 -13.06164,52.247 -19.59258,78.3705 4.22412,4.3014 14.8908,14.7636 15.29559,15.2956 -5.1198,-7.1749 -13.74444,6.9232 -16.18842,12.0866 -7.63998,30.5596 -15.27969,61.1192 -22.91967,91.6787 4.28901,6.2766 14.79075,14.0425 15.29907,8.5134 -7.00656,4.5359 6.24411,14.2912 11.66946,15.2991 30.698,0 61.39598,0 92.09396,0 3.96876,-3.9687 7.93749,-7.9375 11.90625,-11.9062 -5.43987,-5.2601 -4.21959,-4.3079 0,0 9.76848,-7.0291 14.61564,-17.0915 16.12617,-28.7843 6.53088,-26.1234 13.06167,-52.247 19.59258,-78.3704 -4.29804,-6.3429 -14.84601,-14.0191 -15.33198,-8.4821 8.25921,-2.5881 -6.0015,-11.6406 2.28621,-4.5624 8.517,-1.6661 15.72453,-14.6712 16.52634,-24.6886 6.77736,-27.1093 13.55457,-54.2186 20.33193,-81.3279 -6.07206,-5.1415 -11.98422,-17.2693 -18.12,-5.751 -8.95794,6.6816 -7.92159,18.8793 -11.39109,28.5437 -6.03798,24.1519 -12.07587,48.3039 -18.11391,72.4558 5.49492,2.9267 -6.11532,-1.596 -10.10157,0 -28.38333,0 -56.76663,0 -85.14995,0 -4.01664,5.7944 3.33714,-7.2417 2.74275,-10.9632 7.0238,-28.0951 14.04743,-56.1902 21.07127,-84.2853 -3.96879,-3.9687 -7.93746,-7.9375 -11.90625,-11.9062 z m -19.3337,114.5806 c -3.1842,3.2384 -5.9964,5.9134 -1.13925,1.0989 z m 105.0494,14.0131 c -5.78583,7.9098 -5.56644,18.9084 -8.80989,28.1236 -5.79153,23.1661 -11.58297,46.3322 -17.37456,69.4983 5.4669,2.9041 -6.12432,-1.5864 -10.10001,0 -28.38333,0 -56.76666,0 -85.14998,0 -5.01576,6.3773 3.94878,-7.5546 2.74122,-10.9632 7.02381,-28.0951 14.04744,-56.1902 21.07128,-84.2852 -5.43474,-2.8784 6.13481,1.5755 10.09847,0 28.38333,0 56.76666,0 85.14999,0 l 1.18674,-1.1868 z" />
    <path
       id="path4682-18-2-4-7-09"
       style="fill:#000000;fill-opacity:1;stroke:#000000;stroke-width:0.793749px;stroke-linecap:butt;stroke-linejoin:miter;stroke-opacity:1"
       d="m 1959.7777,1845.4651 c -3.9191,4.215 -8.5901,8.0042 -12.0495,12.4795 -7.8898,31.5589 -15.7795,63.1179 -23.6693,94.6768 3.9683,3.9683 7.9365,7.9365 11.9047,11.9047 -3.9185,4.215 -8.5891,8.0043 -12.0479,12.4795 -7.8898,31.5589 -15.7795,63.1178 -23.6693,94.6768 7.9375,7.9375 15.8751,15.875 23.8125,23.8125 31.7506,0 63.5011,0 95.2516,0 3.9688,-3.9688 7.9375,-7.9375 11.9063,-11.9063 -3.9688,-3.9687 -7.9375,-7.9374 -11.9063,-11.9062 -31.7505,0 -63.501,0 -95.2516,0 7.9375,-31.75 15.8751,-63.5 23.8125,-95.25 31.75,0 63.5001,0 95.25,0 3.9688,-3.9688 7.9375,-7.9375 11.9063,-11.9063 -3.9688,-3.9682 -7.9375,-7.9364 -11.9063,-11.9047 -31.7499,0 -63.5,0 -95.25,0 7.9375,-31.75 15.8751,-63.5 23.8125,-95.25 -3.9687,-3.9688 -7.9374,-7.9375 -11.9062,-11.9063 z" />
    <path
       id="path4682-1-70-6-6-4-7-3-3"
       style="fill:#000000;fill-opacity:1;stroke:#000000;stroke-width:0.791922px;stroke-linecap:butt;stroke-linejoin:miter;stroke-opacity:1"
       d="m 2118.5293,1845.4667 c -9.7583,7.0299 -14.6144,17.0724 -16.1197,28.7624 -6.533,26.1309 -13.0663,52.2615 -19.5991,78.3923 6.0657,5.1275 11.9819,17.275 18.1075,5.7602 8.9676,-6.6704 7.9285,-18.8681 11.3976,-28.5314 6.04,-24.1591 12.08,-48.3182 18.1199,-72.4773 -3.9688,-3.9687 -7.9375,-7.9375 -11.9062,-11.9062 z m -23.8126,119.061 c -9.759,7.0295 -14.6161,17.0717 -16.121,28.7624 -6.5327,26.1308 -13.0649,52.2616 -19.5977,78.3923 3.9687,3.9688 7.9375,7.9375 11.9062,11.9062 5.3139,-5.4351 4.2588,-4.1993 0,0 5.7626,5.0199 10.3541,13.9503 19.1487,11.9063 29.3359,0 58.6718,0 88.0076,0 4.5543,-5.0227 15.9309,-12.4068 7.8093,-16.0032 5.4414,9.3582 12.6867,-5.571 16.5203,-9.8729 7.7654,-31.0615 15.5299,-62.1233 23.2954,-93.1848 -6.0657,-5.1278 -11.9824,-17.2753 -18.1075,-5.7594 -8.9672,6.6711 -7.9286,18.8683 -11.3976,28.5319 -6.0399,24.1587 -12.0801,48.3172 -18.1199,72.4759 5.7432,4.6398 -3.7084,-2.177 -7.2424,0 -29.3359,0 -58.6718,0 -88.0076,0 -4.974,6.345 3.8905,-7.4288 2.7342,-10.9383 7.0261,-28.1034 14.0523,-56.2067 21.0783,-84.3101 -3.9687,-3.9688 -7.9375,-7.9376 -11.9063,-11.9063 z" />
    <path
       id="path4682-18-2-6-6"
       style="fill:#000000;fill-opacity:1;stroke:#000000;stroke-width:0.793749px;stroke-linecap:butt;stroke-linejoin:miter;stroke-opacity:1"
       d="m 1331.9106,2414.5855 c -7.9375,7.9375 -15.8751,15.875 -23.8125,23.8125 -7.938,31.75 -15.8761,63.5 -23.8141,95.25 3.9677,3.9693 7.9438,7.9386 11.9063,11.9078 -3.9134,4.2275 -8.6242,8.0034 -12.056,12.5035 -7.8876,31.551 -15.7752,63.1019 -23.6628,94.6528 3.9688,3.9687 7.9375,7.9375 11.9063,11.9062 3.9134,-4.2279 8.624,-8.0045 12.0559,-12.5051 7.8881,-31.5509 15.7762,-63.1018 23.6644,-94.6527 31.75,0 63.5,0 95.25,0 -7.9375,31.7505 -15.875,63.501 -23.8125,95.2516 3.9687,3.9687 7.9375,7.9375 11.9062,11.9062 3.9135,-4.2279 8.6241,-8.0045 12.056,-12.5051 7.8876,-31.5509 15.7752,-63.1018 23.6628,-94.6527 -7.9376,-7.9386 -15.8765,-15.8739 -23.8141,-23.8125 -31.7495,0 -63.499,0 -95.2484,0 7.9375,-31.75 15.875,-63.5 23.8125,-95.25 31.75,0 63.5,0 95.25,0 3.9687,-3.9687 7.9375,-7.9375 11.9062,-11.9062 -3.9687,-3.9688 -7.9375,-7.9375 -11.9062,-11.9063 -31.75,0 -63.5,0 -95.25,0 z" />
    <path
       id="path4682-18-2-2-5-5"
       style="fill:#000000;fill-opacity:1;stroke:#000000;stroke-width:0.793749px;stroke-linecap:butt;stroke-linejoin:miter;stroke-opacity:1"
       d="m 1597.8168,2426.4933 c -3.9208,4.2067 -8.568,8.0021 -12.0447,12.4602 -7.8922,31.5643 -15.7813,63.1327 -23.6756,94.6945 -31.75,0 -63.5,0 -95.25,0 -3.9687,3.9693 -7.9375,7.9386 -11.9062,11.9078 3.9687,3.9688 7.9375,7.9375 11.9062,11.9063 31.7506,0 63.5011,0 95.2516,0 -7.9375,31.7505 -15.875,63.501 -23.8125,95.2515 3.9688,3.9688 7.9375,7.9375 11.9062,11.9063 3.9209,-4.2066 8.5681,-8.0021 12.0448,-12.4602 7.8913,-31.5659 15.7826,-63.1317 23.674,-94.6976 -3.9688,-3.9688 -7.9375,-7.9375 -11.9063,-11.9063 3.921,-4.2071 8.568,-8.0031 12.0448,-12.4617 7.8913,-31.5649 15.7826,-63.1297 23.674,-94.6945 -3.9688,-3.9688 -7.9375,-7.9375 -11.9063,-11.9063 z" />
    <path
       id="path4682-9-5-2-1-6-4"
       style="fill:#000000;fill-opacity:1;stroke:#000000;stroke-width:0.793749px;stroke-linecap:butt;stroke-linejoin:miter;stroke-opacity:1"
       d="m 1649.4121,2414.5855 c -7.9375,7.9375 -15.875,15.875 -23.8125,23.8125 -7.9375,31.75 -15.875,63.5 -23.8125,95.25 3.9688,3.9688 7.9375,7.9375 11.9063,11.9063 3.9134,-4.228 8.624,-8.0045 12.0559,-12.5051 7.8876,-31.5504 15.7752,-63.1008 23.6628,-94.6512 31.75,0 63.5,0 95.25,0 3.9688,-3.9687 7.9375,-7.9375 11.9063,-11.9062 -3.9688,-3.9688 -7.9375,-7.9375 -11.9063,-11.9063 -31.75,0 -63.5,0 -95.25,0 z m -35.7187,130.9688 c -3.9135,4.2279 -8.6241,8.0045 -12.056,12.505 -7.8876,31.551 -15.7752,63.1019 -23.6628,94.6528 3.9688,3.9687 7.9375,7.9375 11.9063,11.9062 3.9134,-4.2279 8.624,-8.0045 12.0559,-12.5051 7.8876,-31.5509 15.7752,-63.1018 23.6628,-94.6527 -3.9687,-3.9687 -7.9375,-7.9375 -11.9062,-11.9062 z" />
    <path
       id="path4682-18-2-2-1-1-5"
       style="fill:#000000;fill-opacity:1;stroke:#000000;stroke-width:0.793749px;stroke-linecap:butt;stroke-linejoin:miter;stroke-opacity:1"
       d="m 1808.1637,2414.5871 c -7.9375,7.9375 -15.875,15.875 -23.8125,23.8125 -7.938,31.7495 -15.876,63.4989 -23.8141,95.2484 3.9678,3.9698 7.9438,7.9396 11.9063,11.9094 -3.9134,4.2274 -8.6242,8.0034 -12.056,12.5035 -7.8876,31.5509 -15.7752,63.1018 -23.6628,94.6527 3.9688,3.9688 7.9375,7.9375 11.9063,11.9063 3.9134,-4.2279 8.624,-8.0045 12.0559,-12.5051 7.8882,-31.5509 15.7763,-63.1018 23.6644,-94.6527 31.7495,0 63.499,0 95.2484,0 3.9688,-3.9688 7.9375,-7.9375 11.9063,-11.9063 -3.9688,-3.9692 -7.9375,-7.9385 -11.9063,-11.9078 -31.7494,0 -63.4989,0 -95.2484,0 7.9375,-31.7495 15.875,-63.4989 23.8125,-95.2484 31.75,0 63.5,0 95.25,0 3.9688,-3.9688 7.9375,-7.9375 11.9062,-11.9063 -3.9687,-3.9687 -7.9374,-7.9375 -11.9062,-11.9062 -31.75,0 -63.5,0 -95.25,0 z" />
    <path
       style="fill:#000000;fill-opacity:1;stroke:#000000;stroke-width:0.793749px;stroke-linecap:butt;stroke-linejoin:miter;stroke-opacity:1"
       d="m 1760.5378,2652.7132 -11.9063,11.907 11.9063,11.9067 h 95.2504 l 11.9064,-11.9067 -11.9064,-11.907 z"
       id="path4682-0-0-2-8-0-9-2"
       sodipodi:nodetypes="ccccccc" />
    <path
       id="path4682-18-2-26-7-2"
       style="fill:#000000;fill-opacity:1;stroke:#000000;stroke-width:0.793749px;stroke-linecap:butt;stroke-linejoin:miter;stroke-opacity:1"
       d="m 1968.4981,2412.998 c -7.9375,7.9375 -15.875,15.875 -23.8125,23.8125 -7.9375,31.7495 -15.875,63.499 -23.8125,95.2485 3.9682,3.9687 7.9365,7.9375 11.9047,11.9062 -3.9133,4.2348 -8.6415,8.0083 -12.0591,12.5238 -7.886,31.5447 -15.7721,63.0893 -23.6581,94.634 7.9379,7.9376 15.8754,15.8756 23.8125,23.8141 31.75,0 63.5,0 95.25,0 7.9371,-7.9385 15.8746,-15.8765 23.8125,-23.8141 7.9375,-31.7505 15.875,-63.501 23.8125,-95.2515 -7.9376,-7.9387 -15.8765,-15.8739 -23.8141,-23.8125 -31.7494,0 -63.4989,0 -95.2484,0 7.9375,-31.7495 15.875,-63.499 23.8125,-95.2485 31.75,0 63.5,0 95.25,0 3.9688,-3.9688 7.9375,-7.9375 11.9062,-11.9062 -4.2479,-3.807 -7.9822,-8.854 -12.5427,-11.9063 -31.5378,0 -63.0757,0 -94.6135,0 z m -23.8125,142.8735 c 31.75,0 63.5,0 95.25,0 -7.9375,31.7505 -15.875,63.501 -23.8125,95.2515 -31.75,0 -63.5,0 -95.25,0 7.9375,-31.7505 15.875,-63.501 23.8125,-95.2515 z" />
    <path
       id="path4682-9-5-2-6-93"
       style="fill:#000000;fill-opacity:1;stroke:#000000;stroke-width:0.793749px;stroke-linecap:butt;stroke-linejoin:miter;stroke-opacity:1"
       d="m 1314.4496,0.0010487 c -7.9375,7.9374955 -15.875,15.8749943 -23.8125,23.8124943 -7.9375,31.75001 -15.875,63.499929 -23.8125,95.249857 7.9375,7.9375 15.875,15.875 23.8125,23.8125 31.75,0 63.5,0 95.25,0 7.9375,-7.9375 15.875,-15.875 23.8125,-23.8125 7.9375,-31.749928 15.875,-63.499847 23.8125,-95.249857 -7.9375,-7.9375 -15.875,-15.8749988 -23.8125,-23.8124943 -31.75,0 -63.5,0 -95.25,0 z m 0,23.8124943 c 31.75,0 63.5,0 95.25,0 -7.9375,31.75001 -15.875,63.499929 -23.8125,95.249857 -31.75,0 -63.5,0 -95.25,0 7.9375,-31.749928 15.875,-63.499847 23.8125,-95.249857 z" />
    <path
       id="path4682-1-70-6-6-8-97-1"
       style="fill:#000000;fill-opacity:1;stroke:#000000;stroke-width:0.791922px;stroke-linecap:butt;stroke-linejoin:miter;stroke-opacity:1"
       d="m 1470.8168,11.907293 -11.9062,11.90625 -23.8125,95.249857 11.9062,11.90625 11.9063,-11.90625 23.8125,-95.249857 z m -23.8125,119.062357 -11.9062,11.90625 -23.8125,95.25001 11.9062,11.90625 11.9063,-11.90625 23.8125,-95.25001 z" />
    <path
       id="path4682-9-5-2-6-93-24"
       style="fill:#000000;fill-opacity:1;stroke:#000000;stroke-width:0.793749px;stroke-linecap:butt;stroke-linejoin:miter;stroke-opacity:1"
       d="m 1654.1746,0.0010487 c -7.9375,7.9374955 -15.875,15.8749943 -23.8125,23.8124943 -7.9375,31.75001 -15.875,63.499929 -23.8125,95.249857 3.9688,3.96875 7.9375,7.9375 11.9063,11.90625 3.9349,-4.1386 8.3877,-7.98403 12.0053,-12.30234 7.9045,-31.617895 15.8089,-63.235787 23.7134,-94.853767 31.75,0 63.5,0 95.25,0 3.9688,-3.96875 7.9375,-7.9375 11.9063,-11.90625 -3.9688,-3.9687488 -7.9375,-7.9374964 -11.9063,-11.9062443 -31.75,0 -63.5,0 -95.25,0 z" />
    <path
       id="path4682-9-5-2-6-93-2-8-6"
       style="fill:#000000;fill-opacity:1;stroke:#000000;stroke-width:0.793749px;stroke-linecap:butt;stroke-linejoin:miter;stroke-opacity:1"
       d="m 1810.5434,11.907293 c -3.9209,4.20664 -8.5681,8.00205 -12.0447,12.46019 -7.8914,31.56536 -15.7827,63.130629 -23.6741,94.695917 3.9688,3.96875 7.9375,7.9375 11.9063,11.90625 -3.9209,4.20664 -8.5681,8.00204 -12.0447,12.46019 -7.8914,31.56536 -15.7827,63.13071 -23.6741,94.69607 3.9688,3.96875 7.9375,7.93749 11.9063,11.90625 3.9209,-4.20664 8.5681,-8.00205 12.0447,-12.4602 7.8914,-31.56535 15.7827,-63.13071 23.674,-94.69606 31.75,0 63.5,0 95.25,0 3.9688,-3.96875 7.9375,-7.9375 11.9063,-11.90625 -3.9688,-3.96875 -7.9375,-7.9375 -11.9063,-11.90625 -31.75,0 -63.5,0 -95.25,0 7.9375,-31.749928 15.875,-63.499847 23.8125,-95.249857 -3.9687,-3.96875 -7.9375,-7.9375 -11.9062,-11.90625 z" />
    <path
       id="path4682-9-5-2-6-93-63"
       style="fill:#000000;fill-opacity:1;stroke:#000000;stroke-width:0.793749px;stroke-linecap:butt;stroke-linejoin:miter;stroke-opacity:1"
       d="m 1989.1356,0.0010487 c -7.9375,7.9374955 -15.875,15.8749943 -23.8125,23.8124943 -7.9375,31.75001 -15.875,63.499929 -23.8125,95.249857 3.9687,3.96875 7.9375,7.9375 11.9063,11.90625 3.9343,-4.14567 8.4066,-7.98681 12.0096,-12.32005 7.9031,-31.611995 15.8061,-63.223987 23.7091,-94.836057 31.75,0 63.5,0 95.25,0 -7.9375,31.75001 -15.875,63.499929 -23.8125,95.249857 3.9688,3.96875 7.9375,7.9375 11.9063,11.90625 3.9343,-4.14567 8.4066,-7.98681 12.0096,-12.32005 7.9031,-31.611995 15.8061,-63.223987 23.7091,-94.836057 -7.9375,-7.9375 -15.875,-15.8749988 -23.8125,-23.8124943 -31.75,0 -63.5,0 -95.25,0 z" />
    <path
       id="path4682-9-5-2-6-93-6-6"
       style="fill:#000000;fill-opacity:1;stroke:#000000;stroke-width:0.793749px;stroke-linecap:butt;stroke-linejoin:miter;stroke-opacity:1"
       d="m 2157.4106,0.0010487 c -3.9687,3.9687479 -7.9375,7.9374955 -11.9063,11.9062443 3.9688,3.96875 7.9376,7.9375 11.9063,11.90625 31.75,0 63.5,0 95.25,0 -7.9375,31.75001 -15.875,63.499929 -23.8125,95.249857 3.9688,3.96875 7.9375,7.9375 11.9063,11.90625 3.9238,-4.20357 8.5603,-8.0036 12.0438,-12.45646 7.8916,-31.566525 15.7833,-63.133047 23.6749,-94.699647 -7.9375,-7.9375 -15.875,-15.8749988 -23.8125,-23.8124943 -31.75,0 -63.5,0 -95.25,0 z m 83.3438,130.9686013 c -3.9238,4.20357 -8.5604,8.0036 -12.0438,12.45646 -7.8917,31.5666 -15.7833,63.1332 -23.675,94.6998 3.9688,3.96875 7.9375,7.93749 11.9063,11.90625 3.9238,-4.20358 8.5603,-8.0036 12.0438,-12.45646 7.8916,-31.5666 15.7833,-63.1332 23.6749,-94.6998 -3.9687,-3.96875 -7.9375,-7.9375 -11.9062,-11.90625 z" />
    <path
       id="path4682-9-5-2-6-93-2-1"
       style="fill:#000000;fill-opacity:1;stroke:#000000;stroke-width:0.793749px;stroke-linecap:butt;stroke-linejoin:miter;stroke-opacity:1"
       d="m 2315.3684,11.907293 c -3.9188,4.2031 -8.5582,7.9982 -12.0416,12.44781 -7.8924,31.56949 -15.7848,63.138889 -23.6771,94.708297 7.9375,7.9375 15.875,15.875 23.8125,23.8125 31.75,0 63.5,0 95.25,0 -7.9375,31.75 -15.875,63.5 -23.8125,95.25001 3.9687,3.96875 7.9375,7.93749 11.9062,11.90625 3.9188,-4.2031 8.5582,-7.9982 12.0417,-12.44781 7.8923,-31.56949 15.7847,-63.13897 23.6771,-94.70845 -7.9375,-7.9375 -15.875,-15.875 -23.8125,-23.8125 -31.75,0 -63.5,0 -95.25,0 7.9375,-31.749928 15.875,-63.499847 23.8125,-95.249857 -3.9688,-3.96875 -7.9375,-7.9375 -11.9063,-11.90625 z" />
    <path
       id="path4682-9-5-2-6-93-8"
       style="fill:#000000;fill-opacity:1;stroke:#000000;stroke-width:0.793749px;stroke-linecap:butt;stroke-linejoin:miter;stroke-opacity:1"
       d="m 1319.2121,614.36343 c -7.9375,7.93749 -15.875,15.87501 -23.8125,23.8125 -7.9375,31.74999 -15.875,63.50001 -23.8125,95.25 3.9688,3.96876 7.9375,7.93749 11.9063,11.90625 -3.9135,4.22793 -8.6241,8.00451 -12.056,12.50508 -7.8876,31.55038 -15.7752,63.10078 -23.6628,94.65118 3.9688,3.96876 7.9375,7.93749 11.9063,11.90625 3.9134,-4.22793 8.624,-8.00451 12.0559,-12.50508 7.8876,-31.55037 15.7752,-63.10077 23.6628,-94.65118 31.75,0 63.5,0 95.25,0 3.9688,-3.96876 7.9375,-7.93749 11.9063,-11.90625 -3.9688,-3.96876 -7.9375,-7.93749 -11.9063,-11.90625 -31.75,0 -63.5,0 -95.25,0 7.9375,-31.74999 15.875,-63.50001 23.8125,-95.25 31.75,0 63.5,0 95.25,0 3.9688,-3.96876 7.9375,-7.93749 11.9063,-11.90625 -3.9688,-3.96876 -7.9375,-7.93749 -11.9063,-11.90625 -31.75,0 -63.5,0 -95.25,0 z" />
    <path
       id="path4682-9-5-2-6-93-6-4"
       style="fill:#000000;fill-opacity:1;stroke:#000000;stroke-width:0.793749px;stroke-linecap:butt;stroke-linejoin:miter;stroke-opacity:1"
       d="m 1487.4871,614.36343 c -7.8886,8.19819 -16.5652,15.95022 -23.9656,24.42492 -7.8864,31.54584 -15.7729,63.09171 -23.6594,94.63758 3.9688,3.96876 7.9375,7.93749 11.9063,11.90625 3.918,-4.23051 8.6317,-8.01051 12.0593,-12.51867 7.8865,-31.54584 15.773,-63.09171 23.6594,-94.63758 31.75,0 63.5,0 95.25,0 -7.9375,31.74999 -15.875,63.50001 -23.8125,95.25 3.9688,3.96876 7.9375,7.93749 11.9063,11.90625 3.918,-4.23051 8.6317,-8.01051 12.0593,-12.51867 7.8865,-31.54584 15.773,-63.09171 23.6594,-94.63758 -7.9375,-7.93749 -15.875,-15.87501 -23.8125,-23.8125 -31.75,0 -63.5,0 -95.25,0 z m -35.7187,130.96875 c -3.918,4.23051 -8.6317,8.01051 -12.0594,12.51867 -7.8864,31.54585 -15.7729,63.09172 -23.6594,94.63759 3.9688,3.96876 7.9375,7.93749 11.9063,11.90625 3.918,-4.23051 8.6317,-8.01051 12.0593,-12.51867 7.8865,-31.54584 15.773,-63.09171 23.6594,-94.63759 -3.9687,-3.96876 -7.9375,-7.93749 -11.9062,-11.90625 z" />
    <path
       id="path4682-9-5-2-6-93-2-85-8"
       style="fill:#000000;fill-opacity:1;stroke:#000000;stroke-width:0.793749px;stroke-linecap:butt;stroke-linejoin:miter;stroke-opacity:1"
       d="m 1766.0934,626.26968 c -3.9167,4.22445 -8.6152,8.00619 -12.0549,12.5007 -7.8879,31.55184 -15.7759,63.10371 -23.6639,94.65555 -31.75,0 -63.5,0 -95.25,0 -7.9375,7.93749 -15.875,15.87501 -23.8125,23.8125 -7.9375,31.75 -15.875,63.50002 -23.8125,95.25001 3.9688,3.96876 7.9375,7.93749 11.9063,11.90625 3.9166,-4.22445 8.6152,-8.00619 12.0549,-12.5007 7.8879,-31.55184 15.7759,-63.10371 23.6638,-94.65556 31.75,0 63.5,0 95.25,0 -7.9375,31.75 -15.875,63.50002 -23.8125,95.25001 3.9688,3.96876 7.9375,7.93749 11.9063,11.90625 3.9166,-4.22445 8.6152,-8.00619 12.0549,-12.5007 7.8879,-31.55184 15.7759,-63.10371 23.6638,-94.65556 -3.9687,-3.96876 -7.9375,-7.93749 -11.9062,-11.90625 3.9166,-4.22445 8.6152,-8.00619 12.0549,-12.5007 7.8879,-31.55184 15.7759,-63.10371 23.6638,-94.65555 -3.9687,-3.96876 -7.9375,-7.93749 -11.9062,-11.90625 z" />
    <path
       id="path4682-9-5-2-6-93-2-8-6-8"
       style="fill:#000000;fill-opacity:1;stroke:#000000;stroke-width:0.793749px;stroke-linecap:butt;stroke-linejoin:miter;stroke-opacity:1"
       d="m 1815.3059,626.26968 c -3.9191,4.21497 -8.5902,8.00418 -12.0495,12.47943 -7.8898,31.55892 -15.7795,63.11787 -23.6693,94.67682 7.9375,7.93749 15.8751,15.87501 23.8125,23.8125 31.75,0 63.5,0 95.25,0 -7.9375,31.75 -15.875,63.50002 -23.8125,95.25001 -31.75,0 -63.5,0 -95.25,0 -3.9687,3.96876 -7.9374,7.93749 -11.9062,11.90625 3.9688,3.96876 7.9375,7.93749 11.9062,11.90625 31.75,0 63.5,0 95.25,0 7.9375,-7.93749 15.875,-15.87501 23.8125,-23.8125 7.9375,-31.74999 15.875,-63.50001 23.8125,-95.25001 -7.9375,-7.93749 -15.875,-15.87501 -23.8125,-23.8125 -31.75,0 -63.5,0 -95.25,0 7.9375,-31.74999 15.875,-63.50001 23.8125,-95.25 -3.9687,-3.96876 -7.9375,-7.93749 -11.9062,-11.90625 z" />
    <path
       id="path4682-9-5-2-6-93-63-1"
       style="fill:#000000;fill-opacity:1;stroke:#000000;stroke-width:0.793749px;stroke-linecap:butt;stroke-linejoin:miter;stroke-opacity:1"
       d="m 1993.8996,614.36343 c -3.9687,3.96876 -7.9375,7.93749 -11.9062,11.90625 4.248,3.80691 7.9822,8.85396 12.5427,11.90625 31.5379,0 63.0757,0 94.6135,0 -7.9375,31.74999 -15.875,63.50001 -23.8125,95.25 -31.75,0 -63.5,0 -95.25,0 -3.9687,3.96876 -7.9375,7.93749 -11.9062,11.90625 4.248,3.80691 7.9822,8.85396 12.5427,11.90625 31.5379,0 63.0757,0 94.6135,0 -7.9375,31.75 -15.875,63.50002 -23.8125,95.25001 -31.75,0 -63.5,0 -95.25,0 -3.9687,3.96876 -7.9375,7.93749 -11.9062,11.90625 4.248,3.80691 7.9822,8.85396 12.5427,11.90625 31.5379,0 63.0757,0 94.6135,0 7.9375,-7.93749 15.875,-15.87501 23.8125,-23.8125 7.9375,-31.74999 15.875,-63.50001 23.8125,-95.25001 -3.9687,-3.96876 -7.9375,-7.93749 -11.9062,-11.90625 3.9138,-4.2348 8.6425,-8.00826 12.0606,-12.52374 7.8861,-31.54416 15.7721,-63.08835 23.6581,-94.63251 -7.9375,-7.93749 -15.875,-15.87501 -23.8125,-23.8125 -31.75,0 -63.5,0 -95.25,0 z" />
    <path
       id="path4682-9-5-2-6-93-2-8-7-3"
       style="fill:#000000;fill-opacity:1;stroke:#000000;stroke-width:0.793749px;stroke-linecap:butt;stroke-linejoin:miter;stroke-opacity:1"
       d="m 2150.2684,626.26968 c -3.9167,4.22445 -8.6152,8.00619 -12.0549,12.5007 -7.8879,31.55184 -15.7759,63.10371 -23.6639,94.65555 3.9688,3.96876 7.9375,7.93749 11.9063,11.90625 -3.9167,4.22445 -8.6152,8.00619 -12.0549,12.5007 -7.8879,31.55185 -15.7759,63.10372 -23.6639,94.65556 3.9688,3.96876 7.9375,7.93749 11.9063,11.90625 3.9166,-4.22445 8.6152,-8.00619 12.0549,-12.5007 7.8879,-31.55184 15.7759,-63.10371 23.6638,-94.65556 31.75,0 63.5001,0 95.25,0 -7.9374,31.75 -15.875,63.50002 -23.8125,95.25001 3.9688,3.96876 7.9375,7.93749 11.9063,11.90625 3.9166,-4.22445 8.6152,-8.00619 12.0549,-12.5007 7.8879,-31.55184 15.7759,-63.10371 23.6638,-94.65556 -3.9687,-3.96876 -7.9374,-7.93749 -11.9062,-11.90625 3.9166,-4.22445 8.6152,-8.00619 12.0549,-12.5007 7.8879,-31.55184 15.7759,-63.10371 23.6638,-94.65555 -3.9687,-3.96876 -7.9374,-7.93749 -11.9062,-11.90625 -3.9167,4.22445 -8.6152,8.00619 -12.0549,12.5007 -7.8879,31.55184 -15.7759,63.10371 -23.6639,94.65555 -31.7499,0 -63.5,0 -95.25,0 7.9375,-31.74999 15.8751,-63.50001 23.8125,-95.25 -3.9687,-3.96876 -7.9374,-7.93749 -11.9062,-11.90625 z" />
    <path
       id="path4682-1-70-6-6-8-97-9-1"
       style="fill:#000000;fill-opacity:1;stroke:#000000;stroke-width:0.791922px;stroke-linecap:butt;stroke-linejoin:miter;stroke-opacity:1"
       d="m 2320.1309,626.26968 c -3.918,4.23051 -8.6317,8.01051 -12.0593,12.51864 -7.8865,31.54587 -15.773,63.09174 -23.6594,94.63761 3.9687,3.96876 7.9375,7.93749 11.9062,11.90625 3.918,-4.23051 8.6317,-8.01051 12.0594,-12.51864 7.8864,-31.54587 15.7729,-63.09174 23.6594,-94.63761 -3.9688,-3.96876 -7.9375,-7.93749 -11.9063,-11.90625 z m -23.8125,119.0625 c -3.918,4.23051 -8.6317,8.01051 -12.0593,12.51864 -7.8865,31.54588 -15.773,63.09175 -23.6594,94.63762 7.9375,7.93749 15.875,15.87501 23.8125,23.8125 31.75,0 63.5,0 95.25,0 7.8886,-8.19819 16.5652,-15.95025 23.9656,-24.42489 7.8864,-31.54587 15.7729,-63.09174 23.6594,-94.63762 -3.9688,-3.96876 -7.9375,-7.93749 -11.9063,-11.90625 -3.918,4.23051 -8.6317,8.01051 -12.0593,12.51864 -7.8865,31.54588 -15.773,63.09175 -23.6594,94.63762 -31.75,0 -63.5,0 -95.25,0 7.9375,-31.74999 15.875,-63.50001 23.8125,-95.25001 -3.9688,-3.96876 -7.9375,-7.93749 -11.9063,-11.90625 z m 119.0625,0 c 3.918,-4.23051 8.6317,-8.01051 12.0594,-12.51864 7.8864,-31.54587 15.7729,-63.09174 23.6594,-94.63761 -3.9688,-3.96876 -7.9375,-7.93749 -11.9063,-11.90625 -3.918,4.23051 -8.6317,8.01051 -12.0593,12.51864 -7.8865,31.54587 -15.773,63.09174 -23.6594,94.63761 3.9687,3.96876 7.9375,7.93749 11.9062,11.90625 z" />
    <path
       id="path4682-9-5-2-6-93-69"
       style="fill:#000000;fill-opacity:1;stroke:#000000;stroke-width:0.793749px;stroke-linecap:butt;stroke-linejoin:miter;stroke-opacity:1"
       d="m 1317.6215,1214.4354 c -7.9375,7.9375 -15.875,15.875 -23.8125,23.8125 -7.9375,31.75 -15.875,63.5 -23.8125,95.25 3.9688,3.9688 7.9375,7.9375 11.9063,11.9063 3.9138,-4.2348 8.6425,-8.0083 12.0606,-12.5238 7.886,-31.5441 15.7721,-63.0883 23.6581,-94.6325 31.75,0 63.5,0 95.25,0 3.9688,-3.9688 7.9375,-7.9375 11.9063,-11.9062 -4.248,-3.807 -7.9822,-8.854 -12.5428,-11.9063 -31.5378,0 -63.0756,0 -94.6135,0 z m -35.7187,130.9688 c -3.9139,4.2348 -8.6425,8.0082 -12.0607,12.5237 -7.886,31.5442 -15.772,63.0883 -23.6581,94.6325 7.9375,7.9375 15.875,15.875 23.8125,23.8125 31.75,0 63.5,0 95.25,0 7.9375,-7.9375 15.875,-15.875 23.8125,-23.8125 7.9375,-31.75 15.875,-63.5 23.8125,-95.25 -3.9687,-3.9688 -7.9375,-7.9375 -11.9062,-11.9062 -3.9139,4.2348 -8.6425,8.0082 -12.0607,12.5237 -7.886,31.5442 -15.772,63.0883 -23.6581,94.6325 -31.75,0 -63.5,0 -95.25,0 7.9375,-31.75 15.875,-63.5 23.8125,-95.25 -3.9687,-3.9688 -7.9375,-7.9375 -11.9062,-11.9062 z" />
    <path
       id="path4682-9-5-2-6-93-6-3"
       style="fill:#000000;fill-opacity:1;stroke:#000000;stroke-width:0.793749px;stroke-linecap:butt;stroke-linejoin:miter;stroke-opacity:1"
       d="m 1485.8965,1214.4354 c -7.8886,8.1982 -16.5652,15.9502 -23.9656,24.4249 -7.8864,31.5459 -15.7729,63.0917 -23.6594,94.6376 3.9688,3.9688 7.9375,7.9375 11.9063,11.9063 -3.918,4.2305 -8.6317,8.0105 -12.0594,12.5186 -7.8864,31.5459 -15.7729,63.0917 -23.6594,94.6376 3.9688,3.9688 7.9375,7.9375 11.9063,11.9063 3.918,-4.2306 8.6317,-8.0106 12.0593,-12.5187 7.8865,-31.5459 15.773,-63.0917 23.6594,-94.6376 31.75,0 63.5,0 95.25,0 7.8887,-8.1982 16.5653,-15.9502 23.9656,-24.4249 7.8865,-31.5459 15.773,-63.0917 23.6594,-94.6376 -7.9375,-7.9375 -15.875,-15.875 -23.8125,-23.8125 -31.75,0 -63.5,0 -95.25,0 z m 0,23.8125 c 31.75,0 63.5,0 95.25,0 -7.9375,31.75 -15.875,63.5 -23.8125,95.25 -31.75,0 -63.5,0 -95.25,0 7.9375,-31.75 15.875,-63.5 23.8125,-95.25 z" />
    <path
       id="path4682-9-5-2-6-93-2-85-4"
       style="fill:#000000;fill-opacity:1;stroke:#000000;stroke-width:0.793749px;stroke-linecap:butt;stroke-linejoin:miter;stroke-opacity:1"
       d="m 1645.4403,1226.3417 c -3.9135,4.2279 -8.6241,8.0045 -12.056,12.505 -7.8876,31.5504 -15.7752,63.1008 -23.6628,94.6512 7.9375,7.9375 15.875,15.875 23.8125,23.8125 31.75,0 63.5,0 95.25,0 -7.9375,31.75 -15.875,63.5 -23.8125,95.25 -31.75,0 -63.5,0 -95.25,0 -3.9687,3.9688 -7.9375,7.9375 -11.9062,11.9063 3.9687,3.9687 7.9375,7.9374 11.9062,11.9062 31.75,0 63.5,0 95.25,0 7.9375,-7.9375 15.875,-15.875 23.8125,-23.8125 7.9375,-31.75 15.875,-63.5 23.8125,-95.25 -3.9687,-3.9688 -7.9375,-7.9375 -11.9062,-11.9062 3.9134,-4.228 8.624,-8.0046 12.0559,-12.5051 7.8876,-31.5504 15.7752,-63.1008 23.6628,-94.6512 -3.9687,-3.9688 -7.9375,-7.9375 -11.9062,-11.9062 -3.9135,4.2279 -8.6241,8.0045 -12.056,12.505 -7.8876,31.5504 -15.7752,63.1008 -23.6628,94.6512 -31.75,0 -63.5,0 -95.25,0 7.9375,-31.75 15.875,-63.5 23.8125,-95.25 -3.9687,-3.9688 -7.9375,-7.9375 -11.9062,-11.9062 z" />
    <path
       id="path4682-9-5-2-6-93-6-1-6"
       style="fill:#000000;fill-opacity:1;stroke:#000000;stroke-width:0.793749px;stroke-linecap:butt;stroke-linejoin:miter;stroke-opacity:1"
       d="m 1825.6215,1214.4354 c -3.9687,3.9688 -7.9375,7.9375 -11.9062,11.9063 4.2489,3.8156 7.9901,8.8568 12.5563,11.9062 31.5333,0 63.0666,0 94.5999,0 -7.9375,31.75 -15.875,63.5 -23.8125,95.25 -31.75,0 -63.5,0 -95.25,0 -7.889,8.2049 -16.5842,15.9534 -23.9701,24.4432 -7.885,31.5397 -15.7699,63.0795 -23.6549,94.6193 7.9375,7.9375 15.8751,15.875 23.8125,23.8125 31.75,0 63.5,0 95.25,0 3.9688,-3.9688 7.9375,-7.9375 11.9063,-11.9062 -4.2489,-3.8157 -7.9901,-8.8569 -12.5564,-11.9063 -31.5333,0 -63.0666,0 -94.5999,0 7.9375,-31.75 15.8751,-63.5 23.8125,-95.25 31.75,0 63.5,0 95.25,0 7.8891,-8.2049 16.5843,-15.9534 23.9702,-24.4432 7.8849,-31.5397 15.7699,-63.0795 23.6548,-94.6193 -7.9375,-7.9375 -15.875,-15.875 -23.8125,-23.8125 -31.75,0 -63.5,0 -95.25,0 z" />
    <path
       id="path4682-9-5-2-6-93-63-9"
       style="fill:#000000;fill-opacity:1;stroke:#000000;stroke-width:0.793749px;stroke-linecap:butt;stroke-linejoin:miter;stroke-opacity:1"
       d="m 1992.309,1214.4354 c -7.8886,8.1982 -16.5652,15.9502 -23.9656,24.4249 -7.8864,31.5459 -15.7729,63.0917 -23.6594,94.6376 3.9688,3.9688 7.9375,7.9375 11.9063,11.9063 -3.918,4.2305 -8.6317,8.0105 -12.0594,12.5186 -7.8864,31.5459 -15.7729,63.0917 -23.6594,94.6376 3.9688,3.9688 7.9375,7.9375 11.9063,11.9063 3.918,-4.2306 8.6317,-8.0106 12.0593,-12.5187 7.8865,-31.5459 15.773,-63.0917 23.6594,-94.6376 31.75,0 63.5,0 95.25,0 -7.9375,31.75 -15.875,63.5 -23.8125,95.25 3.9688,3.9688 7.9375,7.9375 11.9063,11.9063 3.918,-4.2306 8.6317,-8.0106 12.0593,-12.5187 7.8865,-31.5459 15.773,-63.0917 23.6594,-94.6376 -3.9687,-3.9688 -7.9375,-7.9375 -11.9062,-11.9062 3.918,-4.2306 8.6317,-8.0106 12.0593,-12.5187 7.8865,-31.5459 15.773,-63.0917 23.6594,-94.6376 -7.9375,-7.9375 -15.875,-15.875 -23.8125,-23.8125 -31.75,0 -63.5,0 -95.25,0 z m 0,23.8125 c 31.75,0 63.5,0 95.25,0 -7.9375,31.75 -15.875,63.5 -23.8125,95.25 -31.75,0 -63.5,0 -95.25,0 7.9375,-31.75 15.875,-63.5 23.8125,-95.25 z" />
    <path
       id="path4682-9-5-2-6-93-6-6-3"
       style="fill:#000000;fill-opacity:1;stroke:#000000;stroke-width:0.793749px;stroke-linecap:butt;stroke-linejoin:miter;stroke-opacity:1"
       d="m 2160.584,1214.4354 c -3.9687,3.9688 -7.9374,7.9375 -11.9062,11.9063 4.2489,3.8156 7.9901,8.8568 12.5563,11.9062 31.5318,0 63.0635,0 94.5953,0 -7.937,31.75 -15.874,63.5 -23.8109,95.25 -31.749,0 -63.498,0 -95.247,0 -7.889,8.2049 -16.5842,15.9534 -23.9701,24.4432 -7.885,31.5397 -15.7699,63.0795 -23.6549,94.6193 7.9375,7.9375 15.8751,15.875 23.8125,23.8125 31.7495,0 63.499,0 95.2485,0 7.8889,-8.2045 16.5836,-15.953 23.9686,-24.4432 7.8845,-31.5397 15.7689,-63.0795 23.6533,-94.6193 -3.9682,-3.9688 -7.9365,-7.9375 -11.9047,-11.9062 3.9202,-4.236 8.6456,-8.016 12.0624,-12.537 7.8849,-31.5397 15.7699,-63.0795 23.6548,-94.6193 -7.9375,-7.9375 -15.875,-15.875 -23.8125,-23.8125 -31.7485,0 -63.4969,0 -95.2454,0 z m -23.8125,142.875 c 31.749,0 63.498,0 95.247,0 -7.937,31.75 -15.874,63.5 -23.811,95.25 -31.7495,0 -63.499,0 -95.2485,0 7.9375,-31.75 15.8751,-63.5 23.8125,-95.25 z" />
    <path
       id="path4682-9-5-2-6-93-3-7"
       style="fill:#000000;fill-opacity:1;stroke:#000000;stroke-width:0.793749px;stroke-linecap:butt;stroke-linejoin:miter;stroke-opacity:1"
       d="m 2330.4388,1214.4354 c -7.8881,8.2054 -16.5828,15.9538 -23.9686,24.4432 -7.8844,31.5397 -15.7689,63.0795 -23.6533,94.6193 3.9688,3.9688 7.9375,7.9375 11.9063,11.9063 -3.9207,4.2359 -8.6467,8.0159 -12.0639,12.5369 -7.8845,31.5397 -15.7689,63.0795 -23.6534,94.6193 7.9374,7.9371 15.8744,15.8746 23.811,23.8125 31.7479,0 63.4959,0 95.2438,0 7.889,-8.2049 16.5842,-15.9534 23.9702,-24.4432 7.8844,-31.5397 15.7688,-63.0795 23.6533,-94.6193 -3.9688,-3.9688 -7.9375,-7.9375 -11.9063,-11.9062 3.9207,-4.236 8.6466,-8.016 12.0639,-12.537 7.8844,-31.5397 15.7689,-63.0795 23.6533,-94.6193 -7.9374,-7.9371 -15.8744,-15.8746 -23.8109,-23.8125 -31.7485,0 -63.4969,0 -95.2454,0 z m 0,23.8125 c 31.7485,0 63.4969,0 95.2454,0 -7.937,31.75 -15.874,63.5 -23.811,95.25 -31.7485,0 -63.4969,0 -95.2453,0 7.9369,-31.75 15.8739,-63.5 23.8109,-95.25 z m -23.8109,119.0625 c 31.7484,0 63.4968,0 95.2453,0 -7.9375,31.75 -15.875,63.5 -23.8125,95.25 -31.7479,0 -63.4959,0 -95.2438,0 7.937,-31.75 15.874,-63.5 23.811,-95.25 z" />
    <path
       style="fill:none;fill-opacity:1;stroke:#000000;stroke-width:19.8437;stroke-dasharray:none;stroke-opacity:1"
       id="path10626"
       sodipodi:type="arc"
       sodipodi:cx="1322.3865"
       sodipodi:cy="388.93878"
       sodipodi:rx="63.499985"
       sodipodi:ry="63.5"
       sodipodi:start="0"
       sodipodi:end="6.2744362"
       sodipodi:open="true"
       sodipodi:arc-type="arc"
       d="m 1385.8865,388.93878 a 63.499985,63.5 0 0 1 -63.3611,63.49985 63.499985,63.5 0 0 1 -63.6383,-63.22206 63.499985,63.5 0 0 1 63.0827,-63.77642 63.499985,63.5 0 0 1 63.9142,62.94307" />
    <path
       style="fill:none;fill-opacity:1;stroke:#000000;stroke-width:19.8437;stroke-linecap:butt;stroke-linejoin:miter;stroke-dasharray:none;stroke-opacity:1"
       d="m 1481.1365,325.43814 -47.6249,238.125 z"
       id="path12346"
       sodipodi:nodetypes="ccc" />
    <path
       style="fill:none;stroke:#000000;stroke-width:19.8437;stroke-linecap:butt;stroke-linejoin:miter;stroke-dasharray:none;stroke-opacity:1"
       d="m 1735.1365,325.43814 h -111.1249 l -31.75,126.99999"
       id="path12348"
       sodipodi:nodetypes="ccc" />
    <path
       style="fill:none;stroke:#000000;stroke-width:19.8437;stroke-linecap:butt;stroke-linejoin:miter;stroke-dasharray:none;stroke-opacity:1"
       d="m 1925.6366,452.43813 c 10.5832,-42.33272 21.1663,-84.66523 47.6256,-105.83261 26.4593,-21.16738 68.7918,-21.16738 84.6662,-1e-5 15.8744,21.16736 5.2913,63.49987 -5.2919,105.83262"
       id="path13082"
       inkscape:path-effect="#path-effect13084"
       inkscape:original-d="m 1925.6366,452.43813 c 10.5841,-42.33249 21.1672,-84.66501 31.75,-126.99999 42.3349,7.8e-4 84.6674,7.8e-4 126.9999,0 -10.5827,42.33498 -21.1659,84.66747 -31.75,126.99999"
       sodipodi:nodetypes="cccc" />
    <path
       style="fill:none;stroke:#000000;stroke-width:19.8437;stroke-linecap:butt;stroke-linejoin:miter;stroke-dasharray:none;stroke-opacity:1"
       d="m 1798.6365,325.43814 -47.6249,238.125"
       id="path13812"
       sodipodi:nodetypes="cc" />
    <path
       style="fill:none;stroke:#000000;stroke-width:19.8437;stroke-linecap:butt;stroke-linejoin:miter;stroke-dasharray:none;stroke-opacity:1"
       d="m 1878.0116,436.56315 c -31.7492,0 -63.4986,0 -84.6661,21.16738 -21.1676,21.16738 -31.7507,63.49986 -42.3339,105.83261"
       id="path13818"
       inkscape:path-effect="#path-effect13820"
       inkscape:original-d="m 1878.0116,436.56315 c -31.7492,7.8e-4 -63.4986,7.8e-4 -95.25,0 -10.5828,42.33498 -21.1659,84.66747 -31.75,126.99999"
       sodipodi:nodetypes="ccc" />
    <path
       style="fill:none;stroke:#000000;stroke-width:19.8437;stroke-linecap:butt;stroke-linejoin:miter;stroke-dasharray:none;stroke-opacity:1"
       d="m 2132.0115,325.43814 h 111.125 l -63.4999,238.125"
       id="path13822"
       sodipodi:nodetypes="ccc" />
    <path
       style="fill:none;stroke:#000000;stroke-width:19.8437;stroke-linecap:butt;stroke-linejoin:miter;stroke-dasharray:none;stroke-opacity:1"
       d="m 2322.5115,325.43814 c -15.8751,37.04201 -31.7498,74.08296 -18.5198,92.60399 13.2299,18.52102 55.5615,18.52102 66.1446,39.68826 10.583,21.16725 -10.5833,63.49972 -31.7498,105.83275"
       id="path13824"
       inkscape:path-effect="#path-effect13826"
       inkscape:original-d="m 2322.5115,325.43814 c -15.8741,37.04244 -31.7488,74.08338 -47.6249,111.12501 42.335,7.8e-4 84.6666,7.8e-4 127,0 -21.1663,42.33498 -42.3326,84.66744 -63.5001,126.99999"
       sodipodi:nodetypes="cccc" />
    <path
       style="fill:none;stroke:#000000;stroke-width:19.8437;stroke-linecap:butt;stroke-linejoin:miter;stroke-dasharray:none;stroke-opacity:1"
       d="m 1385.8865,923.92552 c -31.7492,0 -63.4992,0 -82.0206,18.52154 -18.5213,18.52155 -23.8127,55.56034 -5.291,74.08114 18.5217,18.5209 60.8532,18.5209 60.8532,18.5209 0,0 -42.3316,0 -66.145,21.1674 -23.8134,21.1674 -29.105,63.4999 -34.3965,105.8325"
       id="path13828"
       inkscape:path-effect="#path-effect13830"
       inkscape:original-d="m 1385.8865,923.92552 c -31.7492,8.1e-4 -63.4992,8.1e-4 -95.25,0 -5.291,37.04322 -10.5824,74.082 -15.875,111.12358 42.3351,7e-4 84.6666,7e-4 127.0001,0 -42.3335,7e-4 -84.6651,7e-4 -127.0001,0 -5.2909,42.3349 -10.5825,84.6674 -15.8749,126.9999"
       sodipodi:nodetypes="cccccc" />
    <path
       style="fill:none;stroke:#000000;stroke-width:19.8437;stroke-linecap:butt;stroke-linejoin:miter;stroke-dasharray:none;stroke-opacity:1"
       d="m 1544.6366,1035.0491 c 5.2916,-37.04099 10.5831,-74.08122 -5.2918,-92.6024 -15.8749,-18.52118 -52.9158,-18.52118 -74.083,-2.64555 -21.1673,15.87562 -26.4588,47.62421 -31.7504,87.31185 -5.2917,39.6877 -10.5832,87.3117 -15.8748,134.936"
       id="path13832"
       inkscape:path-effect="#path-effect13834"
       inkscape:original-d="m 1544.6366,1035.0491 c 5.2924,-37.04088 10.5841,-74.08108 15.8749,-111.12358 -37.0416,8.1e-4 -74.0825,8.1e-4 -111.125,0 -5.2909,31.75143 -10.5825,63.5 -15.875,95.24848 -5.291,47.6268 -10.5825,95.2508 -15.8749,142.875"
       sodipodi:nodetypes="ccccc" />
    <path
       style="fill:none;stroke:#000000;stroke-width:19.8437;stroke-linecap:butt;stroke-linejoin:miter;stroke-dasharray:none;stroke-opacity:1"
       d="m 1576.3866,1166.8117 c 5.2916,-42.3327 10.5832,-84.6652 34.3965,-106.6264 23.8134,-21.9612 66.1451,-23.5487 84.6659,-3.175 18.5207,20.3736 13.2292,62.7061 7.9376,105.0387"
       id="path13840"
       inkscape:path-effect="#path-effect13842"
       inkscape:original-d="m 1576.3866,1166.8117 c 5.2924,-42.3326 10.584,-84.6651 15.875,-127 42.3349,-1.5868 84.6666,-3.1743 127,-4.7626 -5.291,42.3349 -10.5826,84.6674 -15.875,126.9999"
       sodipodi:nodetypes="cccc" />
    <path
       style="fill:none;stroke:#000000;stroke-width:19.8437;stroke-linecap:butt;stroke-linejoin:miter;stroke-dasharray:none;stroke-opacity:1"
       d="M 1735.1365,923.92552 1703.3866,1162.049"
       id="path13844"
       sodipodi:nodetypes="cc" />
    <path
       style="fill:none;stroke:#000000;stroke-width:19.8437;stroke-linecap:butt;stroke-linejoin:miter;stroke-dasharray:none;stroke-opacity:1"
       d="m 1751.0116,1162.049 c 37.0424,1.5876 74.0833,3.1751 95.25,-17.1978 21.1667,-20.373 26.4581,-62.7046 15.875,-83.8721 -10.5831,-21.1674 -37.0409,-21.1674 -63.5,-21.1674"
       id="path13848"
       inkscape:path-effect="#path-effect13850"
       inkscape:original-d="m 1751.0116,1162.049 c 37.0424,1.5884 74.0833,3.1759 111.125,4.7627 5.2925,-42.3334 10.584,-84.665 15.875,-127 -26.4581,8e-4 -52.9159,8e-4 -79.375,0"
       sodipodi:nodetypes="cccc" />
    <path
       style="fill:none;stroke:#000000;stroke-width:19.8437;stroke-linecap:butt;stroke-linejoin:miter;stroke-dasharray:none;stroke-opacity:1"
       d="m 1802.6053,923.92555 c -11.9065,38.62966 -23.8122,77.25665 -21.8274,96.57145 1.9848,19.3147 17.8595,19.3147 33.7337,19.3147"
       id="path13915"
       inkscape:path-effect="#path-effect13917"
       inkscape:original-d="m 1802.6053,923.92555 c -11.9054,38.63001 -23.8114,77.25695 -35.7187,115.88615 15.8761,8e-4 31.7508,8e-4 47.625,0"
       sodipodi:nodetypes="ccc" />
    <path
       style="fill:none;stroke:#000000;stroke-width:19.8437;stroke-linecap:butt;stroke-linejoin:miter;stroke-dasharray:none;stroke-opacity:1"
       d="m 1973.2616,923.92555 c 31.7508,0 63.5001,0 76.7291,18.52153 13.229,18.52153 7.9376,55.56033 -18.5208,74.08122 -26.4585,18.5208 -74.0816,18.5208 -74.0816,18.5208 0,0 47.6231,0 66.1439,21.1673 18.5207,21.1674 7.9378,63.4991 -13.2289,84.6658 -21.1666,21.1668 -52.9159,21.1668 -84.6667,21.1668"
       id="path13919"
       inkscape:path-effect="#path-effect13921"
       inkscape:original-d="m 1973.2616,923.92555 c 31.7508,7.8e-4 63.5001,7.8e-4 95.25,0 -5.291,37.04319 -10.5825,74.08197 -15.875,111.12355 -47.6252,7e-4 -95.2483,7e-4 -142.875,0 47.6267,7e-4 95.2498,7e-4 142.875,0 -10.5828,42.3349 -21.1657,84.6666 -31.75,126.9999 -31.7499,9e-4 -63.4992,9e-4 -95.25,0"
       sodipodi:nodetypes="ccccccc" />
    <path
       style="fill:none;stroke:#000000;stroke-width:19.8437;stroke-linecap:butt;stroke-linejoin:miter;stroke-dasharray:none;stroke-opacity:1"
       d="M 2116.1365,923.92552 2084.3866,1162.049"
       id="path13923"
       sodipodi:nodetypes="cc" />
    <path
       style="fill:none;stroke:#000000;stroke-width:19.8437;stroke-linecap:butt;stroke-linejoin:miter;stroke-dasharray:none;stroke-opacity:1"
       d="m 2227.2616,923.92555 -31.75,238.12345"
       id="path13925"
       sodipodi:nodetypes="cc" />
    <path
       style="fill:none;stroke:#000000;stroke-width:19.8437;stroke-linecap:butt;stroke-linejoin:miter;stroke-dasharray:none;stroke-opacity:1"
       d="m 2084.3866,1162.049 c 5.2916,-42.3326 10.5831,-84.6651 31.7507,-105.8325 21.1675,-21.1674 58.2077,-21.1674 79.3744,-39.6883 21.1666,-18.5208 26.4581,-55.56031 31.7499,-92.60265"
       id="path13927"
       inkscape:path-effect="#path-effect13929"
       inkscape:original-d="m 2084.3866,1162.049 c 5.2924,-42.3325 10.584,-84.665 15.875,-126.9999 37.0432,7e-4 74.0834,7e-4 111.125,0 5.2926,-37.04158 10.5841,-74.08108 15.875,-111.12355"
       sodipodi:nodetypes="cccc" />
    <path
       style="fill:none;stroke:#000000;stroke-width:19.8437;stroke-linecap:butt;stroke-linejoin:miter;stroke-dasharray:none;stroke-opacity:1"
       d="m 2290.7615,923.92552 10e-5,238.12348 111.125,-238.12348"
       id="path13931"
       sodipodi:nodetypes="ccc" />
    <path
       style="fill:none;fill-opacity:1;stroke:#000000;stroke-width:19.8437;stroke-dasharray:none;stroke-opacity:1"
       id="path10626-5"
       sodipodi:type="arc"
       sodipodi:cx="2336.8005"
       sodipodi:cy="1597.4199"
       sodipodi:rx="53.974735"
       sodipodi:ry="52.784466"
       sodipodi:start="0"
       sodipodi:end="6.2811536"
       sodipodi:open="true"
       sodipodi:arc-type="arc"
       d="m 2390.7753,1597.4199 a 53.974735,52.784466 0 0 1 -53.9473,52.7845 53.974735,52.784466 0 0 1 -54.0022,-52.7309 53.974735,52.784466 0 0 1 53.8925,-52.838 53.974735,52.784466 0 0 1 54.0569,52.6772" />
    <path
       style="fill:none;fill-opacity:1;stroke:#000000;stroke-width:19.8437;stroke-dasharray:none;stroke-opacity:1"
       id="path10626-5-5"
       sodipodi:type="arc"
       sodipodi:cx="2322.5134"
       sodipodi:cy="1719.6575"
       sodipodi:rx="59.531319"
       sodipodi:ry="61.515667"
       sodipodi:start="0"
       sodipodi:end="6.2803195"
       sodipodi:open="true"
       sodipodi:arc-type="arc"
       d="m 2382.0447,1719.6575 a 59.531319,61.515667 0 0 1 -59.4886,61.5156 59.531319,61.515667 0 0 1 -59.5739,-61.4275 59.531319,61.515667 0 0 1 59.4033,-61.6037 59.531319,61.515667 0 0 1 59.659,61.3393" />
    <path
       style="fill:none;fill-opacity:1;stroke:#000000;stroke-width:19.8437;stroke-dasharray:none;stroke-opacity:1"
       id="path10626-5-5-7"
       sodipodi:type="arc"
       sodipodi:cx="2130.426"
       sodipodi:cy="1724.42"
       sodipodi:rx="57.546814"
       sodipodi:ry="57.546978"
       sodipodi:start="0.14198699"
       sodipodi:end="4.7266738"
       sodipodi:arc-type="arc"
       d="m 2187.3937,1732.5635 a 57.546814,57.546978 0 0 1 -62.6795,49.1194 57.546814,57.546978 0 0 1 -51.742,-60.5328 57.546814,57.546978 0 0 1 58.2758,-54.2712"
       sodipodi:open="true" />
    <path
       style="fill:none;stroke:#000000;stroke-width:19.8437;stroke-linecap:butt;stroke-linejoin:miter;stroke-dasharray:none;stroke-opacity:1"
       d="m 2183.6053,1746.2485 c 17.1978,-69.8494 34.3954,-139.6981 17.8591,-173.3012 -16.5363,-33.6031 -66.807,-30.9572 -117.0778,-28.3114"
       id="path17756"
       inkscape:path-effect="#path-effect17758"
       inkscape:original-d="m 2183.6053,1746.2485 c 17.1987,-69.8492 34.3963,-139.6979 51.5938,-209.5501 -50.271,2.6467 -150.8125,7.9375 -150.8125,7.9375"
       sodipodi:nodetypes="ccc" />
    <path
       style="fill:none;fill-opacity:0.471503;stroke:#000000;stroke-width:19.8437;stroke-dasharray:none;stroke-opacity:1"
       id="path17836"
       sodipodi:type="arc"
       sodipodi:cx="1979.6079"
       sodipodi:cy="1596.2291"
       sodipodi:rx="55.5625"
       sodipodi:ry="51.593754"
       sodipodi:start="3.0497173"
       sodipodi:end="1.5662162"
       sodipodi:arc-type="arc"
       d="m 1924.2797,1600.9627 a 55.5625,51.593754 0 0 1 30.5245,-50.9011 55.5625,51.593754 0 0 1 62.1526,7.9689 55.5625,51.593754 0 0 1 14.5276,56.6774 55.5625,51.593754 0 0 1 -51.622,33.1144"
       sodipodi:open="true" />
    <path
       style="fill:none;stroke:#000000;stroke-width:19.8437;stroke-linecap:butt;stroke-linejoin:miter;stroke-dasharray:none;stroke-opacity:1"
       d="m 1925.6366,1584.3234 -23.8126,190.4999 10e-5,7.9376"
       id="path17838"
       sodipodi:nodetypes="ccc" />
    <path
       style="fill:none;stroke:#000000;stroke-width:19.8437;stroke-linecap:butt;stroke-linejoin:miter;stroke-dasharray:none;stroke-opacity:1"
       d="M 1989.1365,1647.8234 H 1917.699"
       id="path17840" />
    <path
       style="fill:none;stroke:#000000;stroke-width:19.8437;stroke-linecap:butt;stroke-linejoin:miter;stroke-dasharray:none;stroke-opacity:1"
       d="m 1917.699,1647.8234 c 39.6875,0 79.3751,0 93.927,22.4903 14.5519,22.4903 3.9688,67.4687 -6.6144,112.4472"
       id="path17842"
       inkscape:path-effect="#path-effect17844"
       inkscape:original-d="m 1917.699,1647.8234 c 0,0 79.3751,8e-4 119.0626,0 -10.5828,44.9808 -21.1659,89.9592 -31.75,134.9375"
       sodipodi:nodetypes="ccc" />
    <path
       style="fill:none;stroke:#000000;stroke-width:19.8437;stroke-linecap:butt;stroke-linejoin:miter;stroke-dasharray:none;stroke-opacity:1"
       d="m 1758.949,1544.6358 c 39.6875,0 79.375,10e-5 95.2499,18.5216 15.8749,18.5215 7.9376,55.5624 -11.9058,75.4058 -19.8434,19.8435 -51.5927,22.4893 -71.4372,43.6567 -19.8446,21.1674 -27.7819,60.8541 -11.9065,80.6976 15.8755,19.8434 55.5622,19.8434 95.2497,19.8434"
       id="path17846"
       sodipodi:nodetypes="cccccc"
       inkscape:original-d="m 1758.949,1544.6358 c 0,0 79.375,9e-4 119.0626,10e-5 -7.9369,37.0432 -15.8742,74.0841 -23.8125,111.125 -31.7493,2.6466 -63.4986,5.2924 -95.25,7.9375 -7.9369,39.6891 -15.8742,79.3758 -23.8125,119.0625 39.6883,8e-4 119.0625,0 119.0625,0"
       inkscape:path-effect="#path-effect17848" />
    <path
       style="fill:none;stroke:#000000;stroke-width:19.8437;stroke-linecap:butt;stroke-linejoin:miter;stroke-dasharray:none;stroke-opacity:1"
       d="m 1608.1366,1544.6359 c -7.9376,39.6881 -15.8751,79.3756 -1.3226,99.2191 14.5525,19.8434 51.5934,19.8434 74.083,-5e-4 22.4896,-19.8439 30.4269,-59.5306 38.3645,-99.2187"
       id="path18260"
       inkscape:path-effect="#path-effect18262"
       inkscape:original-d="m 1608.1366,1544.6359 c -7.9367,39.6883 -15.8742,79.3758 -23.8125,119.0625 37.0424,8e-4 74.0833,8e-4 111.125,0 7.9384,-39.6876 15.8757,-79.3743 23.8124,-119.0626"
       sodipodi:nodetypes="cccc" />
    <path
       style="fill:none;stroke:#000000;stroke-width:19.8437;stroke-linecap:butt;stroke-linejoin:miter;stroke-dasharray:none;stroke-opacity:1"
       d="m 1568.449,1782.7609 c 37.0425,0 74.0841,0 96.5733,-21.1668 22.4892,-21.1668 30.4266,-63.4993 38.3642,-105.8333"
       id="path18264"
       inkscape:path-effect="#path-effect18266"
       inkscape:original-d="m 1568.449,1782.7609 c 37.0425,0 74.0841,0 111.125,0 7.9385,-42.3334 15.8758,-84.6659 23.8125,-127.0001" />
    <path
       style="fill:none;stroke:#000000;stroke-width:19.8437;stroke-linecap:butt;stroke-linejoin:miter;stroke-dasharray:none;stroke-opacity:1"
       d="m 1703.3865,1655.7608 15.8751,-111.1249"
       id="path18268"
       sodipodi:nodetypes="cc" />
    <path
       style="fill:none;stroke:#000000;stroke-width:19.8437;stroke-linecap:butt;stroke-linejoin:miter;stroke-dasharray:none;stroke-opacity:1"
       d="M 1409.6991,1544.6359 H 1274.7615"
       id="path18293"
       sodipodi:nodetypes="cc" />
    <path
       style="fill:none;stroke:#000000;stroke-width:19.8437;stroke-linecap:butt;stroke-linejoin:miter;stroke-dasharray:none;stroke-opacity:1"
       d="m 1393.824,1663.6984 c -7.9376,42.3339 -15.8749,84.6663 -41.0104,105.8332 -25.1355,21.1668 -67.4671,21.1668 -82.0199,-21.1671 -14.5528,-42.3338 -1.3239,-126.9988 11.9054,-211.6661"
       id="path18295"
       inkscape:path-effect="#path-effect18297"
       inkscape:original-d="m 1393.824,1663.6984 c -7.9367,42.3341 -15.874,84.6665 -23.8124,127 -42.3335,8e-4 -84.6651,8e-4 -127,0 13.2302,-84.6676 26.4591,-169.3326 39.6875,-254"
       sodipodi:nodetypes="cccc" />
  </g>
</svg>
